<svg xmlns="http://www.w3.org/2000/svg" xmlns:xlink="http://www.w3.org/1999/xlink" width="40" zoomAndPan="magnify" viewBox="0 0 30 30.000001" height="40" preserveAspectRatio="xMidYMid meet" version="1.0"><defs><clipPath id="id1"><path d="M 0.484375 0 L 29.515625 0 L 29.515625 29.03125 L 0.484375 29.03125 Z M 0.484375 0 " clip-rule="nonzero"/></clipPath><clipPath id="id2"><path d="M 0.992188 0.507812 L 29.296875 0.507812 L 29.296875 28.816406 L 0.992188 28.816406 Z M 0.992188 0.507812 " clip-rule="nonzero"/></clipPath><clipPath id="id3"><path d="M 1 9 L 24 9 L 24 28.816406 L 1 28.816406 Z M 1 9 " clip-rule="nonzero"/></clipPath></defs><g clip-path="url(#id1)"><path fill="#ffffff" d="M 0.484375 0 L 29.515625 0 L 29.515625 36.289062 L 0.484375 36.289062 Z M 0.484375 0 " fill-opacity="1" fill-rule="nonzero"/><path fill="#ffffff" d="M 0.484375 0 L 29.515625 0 L 29.515625 29.03125 L 0.484375 29.03125 Z M 0.484375 0 " fill-opacity="1" fill-rule="nonzero"/><path fill="#ffffff" d="M 0.484375 0 L 29.515625 0 L 29.515625 29.03125 L 0.484375 29.03125 Z M 0.484375 0 " fill-opacity="1" fill-rule="nonzero"/><path fill="#ffffff" d="M 0.484375 0 L 29.515625 0 L 29.515625 29.03125 L 0.484375 29.03125 Z M 0.484375 0 " fill-opacity="1" fill-rule="nonzero"/></g><g clip-path="url(#id2)"><path fill="#f45858" d="M 0.992188 14.660156 C 0.992188 22.476562 7.328125 28.816406 15.144531 28.816406 C 22.960938 28.816406 29.296875 22.476562 29.296875 14.660156 C 29.296875 6.84375 22.960938 0.507812 15.144531 0.507812 C 7.328125 0.507812 0.992188 6.84375 0.992188 14.660156 " fill-opacity="1" fill-rule="nonzero"/></g><g clip-path="url(#id3)"><path fill="#e84a4a" d="M 23.519531 10.707031 L 21.695312 11.886719 C 21.699219 11.882812 21.699219 11.875 21.699219 11.867188 L 21.730469 11.851562 C 21.757812 11.832031 21.769531 11.8125 21.769531 11.796875 L 21.800781 11.78125 C 21.828125 11.761719 21.839844 11.742188 21.839844 11.726562 L 21.871094 11.710938 C 21.898438 11.691406 21.910156 11.671875 21.914062 11.65625 L 21.941406 11.640625 C 21.96875 11.621094 21.984375 11.601562 21.984375 11.585938 L 22.011719 11.570312 C 22.042969 11.546875 22.054688 11.53125 22.054688 11.515625 L 22.082031 11.5 C 22.113281 11.476562 22.125 11.460938 22.125 11.445312 L 22.152344 11.425781 C 22.183594 11.40625 22.195312 11.390625 22.195312 11.375 L 22.222656 11.355469 C 22.253906 11.335938 22.265625 11.320312 22.265625 11.304688 L 22.292969 11.285156 C 22.324219 11.265625 22.335938 11.25 22.335938 11.234375 L 22.363281 11.214844 C 22.394531 11.195312 22.40625 11.179688 22.40625 11.164062 L 22.433594 11.144531 C 22.464844 11.125 22.476562 11.109375 22.476562 11.09375 L 22.503906 11.074219 C 22.535156 11.054688 22.546875 11.039062 22.546875 11.023438 L 22.574219 11.003906 C 22.605469 10.984375 22.617188 10.964844 22.617188 10.953125 L 22.644531 10.933594 C 22.675781 10.914062 22.6875 10.894531 22.6875 10.882812 L 22.714844 10.863281 C 22.746094 10.84375 22.757812 10.824219 22.757812 10.8125 L 22.785156 10.792969 C 22.816406 10.773438 22.828125 10.753906 22.828125 10.742188 L 22.855469 10.722656 C 22.886719 10.703125 22.898438 10.683594 22.898438 10.671875 L 22.925781 10.652344 C 22.957031 10.632812 22.96875 10.613281 22.96875 10.601562 L 22.996094 10.582031 C 23.027344 10.5625 23.039062 10.542969 23.039062 10.527344 L 23.066406 10.511719 C 23.097656 10.492188 23.109375 10.472656 23.109375 10.457031 L 23.140625 10.441406 C 23.167969 10.421875 23.179688 10.402344 23.179688 10.386719 L 23.210938 10.371094 C 23.238281 10.351562 23.25 10.332031 23.253906 10.316406 L 23.28125 10.300781 C 23.308594 10.277344 23.324219 10.261719 23.324219 10.246094 L 23.351562 10.230469 C 23.378906 10.207031 23.394531 10.191406 23.394531 10.175781 L 23.421875 10.160156 C 23.453125 10.136719 23.464844 10.121094 23.464844 10.105469 L 23.492188 10.085938 C 23.523438 10.066406 23.535156 10.050781 23.535156 10.035156 L 23.5625 10.015625 C 23.632812 9.972656 23.621094 9.933594 23.535156 9.933594 L 6.714844 9.933594 C 6.640625 9.933594 6.628906 9.964844 6.675781 10.003906 L 6.644531 10.003906 C 6.570312 10.003906 6.558594 10.035156 6.605469 10.074219 L 6.574219 10.074219 C 6.5 10.074219 6.488281 10.105469 6.535156 10.144531 L 6.503906 10.144531 C 6.429688 10.144531 6.417969 10.175781 6.464844 10.214844 L 6.433594 10.214844 C 6.359375 10.214844 6.34375 10.246094 6.394531 10.285156 L 6.363281 10.285156 C 6.289062 10.285156 6.273438 10.316406 6.324219 10.355469 L 6.292969 10.355469 C 6.21875 10.355469 6.203125 10.386719 6.253906 10.425781 L 6.222656 10.425781 C 6.148438 10.425781 6.132812 10.457031 6.183594 10.496094 L 6.152344 10.496094 C 6.078125 10.496094 6.0625 10.527344 6.113281 10.570312 L 6.082031 10.570312 C 6.007812 10.570312 5.992188 10.597656 6.039062 10.640625 L 6.011719 10.640625 C 5.9375 10.640625 5.921875 10.667969 5.96875 10.710938 L 5.941406 10.710938 C 5.867188 10.710938 5.851562 10.742188 5.898438 10.78125 L 5.871094 10.78125 C 5.796875 10.78125 5.78125 10.8125 5.828125 10.851562 L 5.800781 10.851562 C 5.722656 10.851562 5.710938 10.882812 5.757812 10.921875 L 5.730469 10.921875 C 5.652344 10.921875 5.640625 10.953125 5.6875 10.992188 L 5.660156 10.992188 C 5.582031 10.992188 5.570312 11.023438 5.617188 11.0625 L 5.585938 11.0625 C 5.511719 11.0625 5.5 11.09375 5.546875 11.132812 L 5.515625 11.132812 C 5.441406 11.132812 5.429688 11.164062 5.476562 11.203125 L 5.445312 11.203125 C 5.371094 11.203125 5.359375 11.234375 5.40625 11.273438 L 5.375 11.273438 C 5.300781 11.273438 5.289062 11.304688 5.335938 11.34375 L 5.304688 11.34375 C 5.230469 11.34375 5.21875 11.375 5.265625 11.414062 L 5.234375 11.414062 C 5.160156 11.414062 5.148438 11.445312 5.195312 11.484375 L 5.164062 11.484375 C 5.089844 11.484375 5.078125 11.515625 5.125 11.554688 L 5.09375 11.554688 C 5.019531 11.554688 5.003906 11.585938 5.054688 11.625 L 5.023438 11.625 C 4.949219 11.625 4.933594 11.65625 4.984375 11.695312 L 4.953125 11.695312 C 4.878906 11.695312 4.863281 11.726562 4.914062 11.765625 L 4.882812 11.765625 C 4.808594 11.765625 4.792969 11.796875 4.84375 11.835938 L 4.8125 11.835938 C 4.738281 11.835938 4.722656 11.867188 4.773438 11.90625 L 4.742188 11.90625 C 4.667969 11.90625 4.652344 11.9375 4.703125 11.980469 L 4.671875 11.980469 C 4.597656 11.980469 4.582031 12.011719 4.628906 12.050781 L 4.601562 12.050781 C 4.527344 12.050781 4.511719 12.082031 4.558594 12.121094 L 4.53125 12.121094 C 4.457031 12.121094 4.441406 12.152344 4.488281 12.191406 L 4.460938 12.191406 C 4.382812 12.191406 4.371094 12.222656 4.417969 12.261719 L 4.390625 12.261719 C 4.3125 12.261719 4.300781 12.292969 4.347656 12.332031 L 4.320312 12.332031 C 4.242188 12.332031 4.230469 12.363281 4.277344 12.402344 L 4.25 12.402344 C 4.171875 12.402344 4.160156 12.433594 4.207031 12.472656 L 4.175781 12.472656 C 4.101562 12.472656 4.089844 12.503906 4.136719 12.542969 L 4.105469 12.542969 C 4.03125 12.542969 4.019531 12.574219 4.066406 12.613281 L 4.035156 12.613281 C 3.960938 12.613281 3.949219 12.644531 3.996094 12.683594 L 3.964844 12.683594 C 3.890625 12.683594 3.878906 12.714844 3.925781 12.753906 L 3.894531 12.753906 C 3.820312 12.753906 3.808594 12.785156 3.855469 12.824219 L 3.824219 12.824219 C 3.75 12.824219 3.738281 12.855469 3.785156 12.894531 L 3.753906 12.894531 C 3.679688 12.894531 3.667969 12.925781 3.714844 12.964844 L 3.683594 12.964844 C 3.609375 12.964844 3.59375 12.996094 3.644531 13.035156 L 3.613281 13.035156 C 3.539062 13.035156 3.523438 13.066406 3.574219 13.105469 L 3.542969 13.105469 C 3.46875 13.105469 3.453125 13.136719 3.503906 13.175781 L 3.472656 13.175781 C 3.398438 13.175781 3.382812 13.207031 3.433594 13.246094 L 3.402344 13.246094 C 3.328125 13.246094 3.3125 13.277344 3.363281 13.320312 L 3.332031 13.320312 C 3.257812 13.320312 3.242188 13.347656 3.292969 13.390625 L 3.261719 13.390625 C 3.1875 13.390625 3.171875 13.421875 3.21875 13.460938 L 3.191406 13.460938 C 3.117188 13.460938 3.101562 13.492188 3.148438 13.53125 L 3.121094 13.53125 C 3.042969 13.53125 3.03125 13.5625 3.078125 13.601562 L 3.050781 13.601562 C 2.972656 13.601562 2.960938 13.632812 3.007812 13.671875 L 2.980469 13.671875 C 2.902344 13.671875 2.890625 13.703125 2.9375 13.742188 L 2.910156 13.742188 C 2.832031 13.742188 2.820312 13.773438 2.867188 13.8125 L 2.835938 13.8125 C 2.761719 13.8125 2.75 13.84375 2.796875 13.882812 L 2.769531 13.882812 C 2.691406 13.882812 2.679688 13.914062 2.726562 13.953125 L 2.695312 13.953125 C 2.621094 13.953125 2.609375 13.984375 2.65625 14.023438 L 2.625 14.023438 C 2.550781 14.023438 2.539062 14.054688 2.585938 14.09375 L 2.554688 14.09375 C 2.480469 14.09375 2.46875 14.125 2.515625 14.164062 L 2.484375 14.164062 C 2.410156 14.164062 2.398438 14.195312 2.445312 14.234375 L 2.414062 14.234375 C 2.339844 14.234375 2.328125 14.265625 2.375 14.304688 L 2.34375 14.304688 C 2.269531 14.304688 2.257812 14.335938 2.304688 14.375 L 2.273438 14.375 C 2.199219 14.375 2.183594 14.40625 2.234375 14.445312 L 2.203125 14.445312 C 2.128906 14.445312 2.113281 14.476562 2.164062 14.515625 L 2.132812 14.515625 C 2.058594 14.515625 2.042969 14.546875 2.09375 14.585938 L 2.0625 14.585938 C 1.988281 14.585938 1.972656 14.617188 2.023438 14.65625 L 1.992188 14.65625 C 1.917969 14.65625 1.902344 14.6875 1.949219 14.730469 L 1.921875 14.730469 C 1.847656 14.730469 1.832031 14.757812 1.878906 14.800781 L 1.851562 14.800781 C 1.777344 14.800781 1.761719 14.832031 1.808594 14.871094 L 1.78125 14.871094 C 1.703125 14.871094 1.691406 14.902344 1.738281 14.941406 L 1.710938 14.941406 C 1.632812 14.941406 1.621094 14.972656 1.667969 15.011719 L 1.640625 15.011719 C 1.5625 15.011719 1.550781 15.042969 1.597656 15.082031 L 1.570312 15.082031 C 1.492188 15.082031 1.480469 15.113281 1.527344 15.152344 L 1.5 15.152344 C 1.421875 15.152344 1.410156 15.183594 1.457031 15.222656 L 1.425781 15.222656 C 1.351562 15.222656 1.339844 15.253906 1.386719 15.292969 L 1.355469 15.292969 C 1.28125 15.292969 1.269531 15.324219 1.316406 15.363281 L 1.285156 15.363281 C 1.210938 15.363281 1.199219 15.394531 1.246094 15.433594 L 1.214844 15.433594 C 1.140625 15.433594 1.128906 15.464844 1.175781 15.503906 L 1.144531 15.503906 C 1.070312 15.503906 1.058594 15.535156 1.105469 15.574219 L 1.074219 15.574219 C 1.050781 15.574219 1.035156 15.578125 1.023438 15.585938 C 1.023438 15.601562 1.023438 15.617188 1.027344 15.636719 C 1.027344 15.640625 1.03125 15.640625 1.035156 15.644531 L 1.027344 15.644531 C 1.507812 22.664062 7.105469 28.273438 14.121094 28.777344 C 14.113281 28.773438 14.109375 28.773438 14.105469 28.769531 L 14.101562 28.765625 L 14.160156 28.765625 C 14.242188 28.765625 14.25 28.734375 14.175781 28.699219 L 14.171875 28.695312 L 14.230469 28.695312 C 14.3125 28.695312 14.320312 28.664062 14.246094 28.628906 L 14.242188 28.625 L 14.300781 28.625 C 14.382812 28.625 14.390625 28.59375 14.316406 28.558594 L 14.3125 28.554688 L 14.371094 28.554688 C 14.453125 28.554688 14.460938 28.523438 14.386719 28.488281 L 14.382812 28.484375 L 14.441406 28.484375 C 14.523438 28.484375 14.53125 28.453125 14.457031 28.414062 L 14.453125 28.414062 L 14.511719 28.414062 C 14.59375 28.414062 14.601562 28.382812 14.527344 28.34375 L 14.523438 28.34375 L 14.582031 28.34375 C 14.664062 28.34375 14.671875 28.3125 14.597656 28.273438 L 14.59375 28.273438 L 14.652344 28.273438 C 14.734375 28.273438 14.742188 28.242188 14.667969 28.203125 L 14.664062 28.203125 L 14.722656 28.203125 C 14.804688 28.203125 14.8125 28.171875 14.738281 28.132812 L 14.792969 28.132812 C 14.875 28.132812 14.882812 28.101562 14.808594 28.0625 L 14.863281 28.0625 C 14.945312 28.0625 14.953125 28.03125 14.878906 27.992188 L 14.933594 27.992188 C 15.015625 27.992188 15.023438 27.960938 14.949219 27.921875 L 15.003906 27.921875 C 15.085938 27.921875 15.09375 27.890625 15.019531 27.851562 L 15.074219 27.851562 C 15.160156 27.851562 15.164062 27.820312 15.089844 27.78125 L 15.144531 27.78125 C 15.230469 27.78125 15.234375 27.75 15.160156 27.710938 L 15.214844 27.710938 C 15.300781 27.710938 15.304688 27.679688 15.234375 27.640625 L 15.230469 27.640625 L 15.289062 27.640625 C 15.371094 27.640625 15.375 27.609375 15.304688 27.570312 L 15.300781 27.570312 L 15.355469 27.570312 C 15.441406 27.570312 15.449219 27.535156 15.375 27.5 L 15.371094 27.5 L 15.429688 27.5 C 15.511719 27.5 15.519531 27.464844 15.445312 27.429688 L 15.441406 27.425781 L 15.5 27.425781 C 15.582031 27.425781 15.589844 27.394531 15.515625 27.359375 L 15.511719 27.355469 L 15.570312 27.355469 C 15.652344 27.355469 15.660156 27.324219 15.585938 27.289062 L 15.582031 27.285156 L 15.640625 27.285156 C 15.722656 27.285156 15.730469 27.253906 15.65625 27.21875 L 15.652344 27.214844 L 15.710938 27.214844 C 15.792969 27.214844 15.800781 27.183594 15.726562 27.148438 L 15.722656 27.144531 L 15.78125 27.144531 C 15.863281 27.144531 15.871094 27.113281 15.796875 27.074219 L 15.792969 27.074219 L 15.851562 27.074219 C 15.933594 27.074219 15.941406 27.042969 15.867188 27.003906 L 15.863281 27.003906 L 15.921875 27.003906 C 16.003906 27.003906 16.011719 26.972656 15.9375 26.933594 L 15.933594 26.933594 L 15.992188 26.933594 C 16.074219 26.933594 16.082031 26.902344 16.007812 26.863281 L 16.003906 26.863281 L 16.0625 26.863281 C 16.144531 26.863281 16.152344 26.832031 16.078125 26.792969 L 16.074219 26.792969 L 16.132812 26.792969 C 16.214844 26.792969 16.222656 26.761719 16.148438 26.722656 L 16.144531 26.722656 L 16.203125 26.722656 C 16.285156 26.722656 16.292969 26.691406 16.21875 26.652344 L 16.273438 26.652344 C 16.355469 26.652344 16.363281 26.621094 16.289062 26.582031 L 16.34375 26.582031 C 16.425781 26.582031 16.433594 26.550781 16.359375 26.511719 L 16.414062 26.511719 C 16.496094 26.511719 16.503906 26.480469 16.429688 26.441406 L 16.484375 26.441406 C 16.570312 26.441406 16.574219 26.410156 16.5 26.371094 L 16.554688 26.371094 C 16.640625 26.371094 16.644531 26.339844 16.570312 26.300781 L 16.625 26.300781 C 16.710938 26.300781 16.714844 26.269531 16.644531 26.230469 L 16.640625 26.230469 L 16.699219 26.230469 C 16.78125 26.230469 16.785156 26.199219 16.714844 26.160156 L 16.710938 26.15625 L 16.769531 26.15625 C 16.851562 26.15625 16.859375 26.125 16.785156 26.089844 L 16.78125 26.085938 L 16.839844 26.085938 C 16.921875 26.085938 16.929688 26.054688 16.855469 26.019531 L 16.851562 26.015625 L 16.910156 26.015625 C 16.992188 26.015625 17 25.984375 16.925781 25.949219 L 16.921875 25.945312 L 16.980469 25.945312 C 17.0625 25.945312 17.070312 25.914062 16.996094 25.878906 L 16.992188 25.875 L 17.050781 25.875 C 17.132812 25.875 17.140625 25.84375 17.066406 25.808594 L 17.0625 25.804688 L 17.121094 25.804688 C 17.203125 25.804688 17.210938 25.773438 17.136719 25.738281 L 17.132812 25.734375 L 17.191406 25.734375 C 17.273438 25.734375 17.28125 25.703125 17.207031 25.664062 L 17.203125 25.664062 L 17.261719 25.664062 C 17.34375 25.664062 17.351562 25.632812 17.277344 25.59375 L 17.273438 25.59375 L 17.332031 25.59375 C 17.414062 25.59375 17.421875 25.5625 17.347656 25.523438 L 17.34375 25.523438 L 17.402344 25.523438 C 17.484375 25.523438 17.492188 25.492188 17.417969 25.453125 L 17.414062 25.453125 L 17.472656 25.453125 C 17.554688 25.453125 17.5625 25.421875 17.488281 25.382812 L 17.484375 25.382812 L 17.542969 25.382812 C 17.625 25.382812 17.632812 25.351562 17.558594 25.3125 L 17.613281 25.3125 C 17.695312 25.3125 17.703125 25.28125 17.628906 25.242188 L 17.683594 25.242188 C 17.765625 25.242188 17.773438 25.210938 17.699219 25.171875 L 17.753906 25.171875 C 17.835938 25.171875 17.84375 25.140625 17.769531 25.101562 L 17.824219 25.101562 C 17.90625 25.101562 17.914062 25.070312 17.839844 25.03125 L 17.894531 25.03125 C 17.980469 25.03125 17.984375 25 17.910156 24.960938 L 17.964844 24.960938 C 18.050781 24.960938 18.054688 24.929688 17.984375 24.890625 L 17.980469 24.890625 L 18.035156 24.890625 C 18.121094 24.890625 18.125 24.859375 18.054688 24.820312 L 18.050781 24.816406 L 18.109375 24.816406 C 18.191406 24.816406 18.199219 24.789062 18.125 24.75 L 18.121094 24.746094 L 18.179688 24.746094 C 18.261719 24.746094 18.269531 24.714844 18.195312 24.679688 L 18.191406 24.675781 L 18.25 24.675781 C 18.332031 24.675781 18.339844 24.644531 18.265625 24.609375 L 18.261719 24.605469 L 18.320312 24.605469 C 18.402344 24.605469 18.410156 24.574219 18.335938 24.539062 L 18.332031 24.535156 L 18.390625 24.535156 C 18.472656 24.535156 18.480469 24.503906 18.40625 24.46875 L 18.402344 24.464844 L 18.460938 24.464844 C 18.542969 24.464844 18.550781 24.433594 18.476562 24.398438 L 18.472656 24.394531 L 18.53125 24.394531 C 18.613281 24.394531 18.621094 24.363281 18.546875 24.328125 L 18.542969 24.324219 L 18.601562 24.324219 C 18.683594 24.324219 18.691406 24.292969 18.617188 24.253906 L 18.613281 24.253906 L 18.671875 24.253906 C 18.753906 24.253906 18.761719 24.222656 18.6875 24.183594 L 18.683594 24.183594 L 18.742188 24.183594 C 18.824219 24.183594 18.832031 24.152344 18.757812 24.113281 L 18.753906 24.113281 L 18.8125 24.113281 C 18.894531 24.113281 18.902344 24.082031 18.828125 24.042969 L 18.824219 24.042969 L 18.882812 24.042969 C 18.964844 24.042969 18.972656 24.011719 18.898438 23.972656 L 18.953125 23.972656 C 19.035156 23.972656 19.042969 23.941406 18.96875 23.902344 L 19.023438 23.902344 C 19.105469 23.902344 19.113281 23.871094 19.039062 23.832031 L 19.09375 23.832031 C 19.175781 23.832031 19.183594 23.800781 19.109375 23.761719 L 19.164062 23.761719 C 19.246094 23.761719 19.253906 23.730469 19.179688 23.691406 L 19.234375 23.691406 C 19.320312 23.691406 19.324219 23.660156 19.25 23.621094 L 19.304688 23.621094 C 19.390625 23.621094 19.394531 23.589844 19.324219 23.550781 L 19.320312 23.550781 L 19.375 23.550781 C 19.460938 23.550781 19.464844 23.519531 19.394531 23.480469 L 19.390625 23.480469 L 19.445312 23.480469 C 19.53125 23.480469 19.539062 23.449219 19.464844 23.410156 L 19.460938 23.40625 L 19.519531 23.40625 C 19.601562 23.40625 19.609375 23.375 19.535156 23.339844 L 19.53125 23.335938 L 19.589844 23.335938 C 19.671875 23.335938 19.679688 23.304688 19.605469 23.269531 L 19.601562 23.265625 L 19.660156 23.265625 C 19.742188 23.265625 19.75 23.234375 19.675781 23.199219 L 19.671875 23.195312 L 19.730469 23.195312 C 19.8125 23.195312 19.820312 23.164062 19.746094 23.128906 L 19.742188 23.125 L 19.800781 23.125 C 19.882812 23.125 19.890625 23.09375 19.816406 23.058594 L 19.8125 23.054688 L 19.871094 23.054688 C 19.953125 23.054688 19.960938 23.023438 19.886719 22.984375 L 19.882812 22.984375 L 19.941406 22.984375 C 20.023438 22.984375 20.03125 22.953125 19.957031 22.914062 L 19.953125 22.914062 L 20.011719 22.914062 C 20.09375 22.914062 20.101562 22.882812 20.027344 22.84375 L 20.023438 22.84375 L 20.082031 22.84375 C 20.164062 22.84375 20.171875 22.8125 20.097656 22.773438 L 20.09375 22.773438 L 20.152344 22.773438 C 20.234375 22.773438 20.242188 22.742188 20.167969 22.703125 L 20.164062 22.703125 L 20.222656 22.703125 C 20.304688 22.703125 20.3125 22.671875 20.238281 22.632812 L 20.234375 22.632812 L 20.292969 22.632812 C 20.375 22.632812 20.382812 22.601562 20.308594 22.5625 L 20.304688 22.5625 L 20.363281 22.5625 C 20.445312 22.5625 20.453125 22.53125 20.378906 22.492188 L 20.433594 22.492188 C 20.515625 22.492188 20.523438 22.460938 20.449219 22.421875 L 20.503906 22.421875 C 20.585938 22.421875 20.59375 22.390625 20.519531 22.351562 L 20.574219 22.351562 C 20.65625 22.351562 20.664062 22.320312 20.589844 22.28125 L 20.644531 22.28125 C 20.730469 22.28125 20.734375 22.25 20.660156 22.210938 L 20.714844 22.210938 C 20.800781 22.210938 20.804688 22.179688 20.734375 22.140625 L 20.730469 22.140625 L 20.785156 22.140625 C 20.871094 22.140625 20.875 22.109375 20.804688 22.070312 L 20.800781 22.066406 L 20.859375 22.066406 C 20.941406 22.066406 20.949219 22.039062 20.875 22 L 20.871094 21.996094 L 20.929688 21.996094 C 21.011719 21.996094 21.019531 21.964844 20.945312 21.929688 L 20.941406 21.925781 L 21 21.925781 C 21.082031 21.925781 21.089844 21.894531 21.015625 21.859375 L 21.011719 21.855469 L 21.070312 21.855469 C 21.152344 21.855469 21.160156 21.824219 21.085938 21.789062 L 21.082031 21.785156 L 21.140625 21.785156 C 21.222656 21.785156 21.230469 21.753906 21.15625 21.71875 L 21.152344 21.714844 L 21.210938 21.714844 C 21.292969 21.714844 21.300781 21.683594 21.226562 21.648438 L 21.222656 21.644531 L 21.28125 21.644531 C 21.363281 21.644531 21.371094 21.613281 21.296875 21.574219 L 21.292969 21.574219 L 21.351562 21.574219 C 21.433594 21.574219 21.441406 21.542969 21.367188 21.503906 L 21.363281 21.503906 L 21.421875 21.503906 C 21.503906 21.503906 21.511719 21.472656 21.4375 21.433594 L 21.433594 21.433594 L 21.492188 21.433594 C 21.574219 21.433594 21.582031 21.402344 21.507812 21.363281 L 21.503906 21.363281 L 21.5625 21.363281 C 21.644531 21.363281 21.652344 21.332031 21.578125 21.292969 L 21.574219 21.292969 L 21.632812 21.292969 C 21.714844 21.292969 21.722656 21.261719 21.648438 21.222656 L 21.644531 21.222656 L 21.703125 21.222656 C 21.785156 21.222656 21.792969 21.191406 21.71875 21.152344 L 21.773438 21.152344 C 21.855469 21.152344 21.863281 21.121094 21.789062 21.082031 L 21.84375 21.082031 C 21.925781 21.082031 21.933594 21.050781 21.859375 21.011719 L 21.914062 21.011719 C 22 21.011719 22.003906 20.980469 21.929688 20.941406 L 21.984375 20.941406 C 22.070312 20.941406 22.074219 20.910156 22 20.871094 L 22.054688 20.871094 C 22.140625 20.871094 22.144531 20.839844 22.070312 20.800781 L 22.125 20.800781 C 22.210938 20.800781 22.214844 20.769531 22.144531 20.730469 L 22.140625 20.730469 L 22.195312 20.730469 C 22.28125 20.730469 22.285156 20.699219 22.214844 20.660156 L 22.210938 20.65625 L 22.269531 20.65625 C 22.351562 20.65625 22.359375 20.625 22.285156 20.589844 L 22.28125 20.585938 L 22.339844 20.585938 C 22.421875 20.585938 22.429688 20.554688 22.355469 20.519531 L 22.351562 20.515625 L 22.410156 20.515625 C 22.492188 20.515625 22.5 20.484375 22.425781 20.449219 L 22.421875 20.445312 L 22.480469 20.445312 C 22.5625 20.445312 22.570312 20.414062 22.496094 20.378906 L 22.492188 20.375 L 22.550781 20.375 C 22.632812 20.375 22.640625 20.34375 22.566406 20.308594 L 22.5625 20.304688 L 22.621094 20.304688 C 22.703125 20.304688 22.710938 20.273438 22.636719 20.238281 L 22.632812 20.234375 L 22.691406 20.234375 C 22.773438 20.234375 22.78125 20.203125 22.707031 20.164062 L 22.703125 20.164062 L 22.761719 20.164062 C 22.84375 20.164062 22.851562 20.132812 22.777344 20.09375 L 22.773438 20.09375 L 22.832031 20.09375 C 22.914062 20.09375 22.921875 20.0625 22.847656 20.023438 L 22.84375 20.023438 L 22.902344 20.023438 C 22.984375 20.023438 22.992188 19.992188 22.917969 19.953125 L 22.914062 19.953125 L 22.972656 19.953125 C 23.054688 19.953125 23.0625 19.921875 22.988281 19.882812 L 23.042969 19.882812 C 23.125 19.882812 23.132812 19.851562 23.058594 19.8125 L 23.054688 19.8125 L 23.113281 19.8125 C 23.195312 19.8125 23.203125 19.78125 23.128906 19.742188 L 23.183594 19.742188 C 23.265625 19.742188 23.273438 19.710938 23.199219 19.671875 L 23.253906 19.671875 C 23.335938 19.671875 23.34375 19.640625 23.269531 19.601562 L 23.324219 19.601562 C 23.40625 19.601562 23.414062 19.570312 23.339844 19.53125 L 23.394531 19.53125 C 23.480469 19.53125 23.484375 19.5 23.410156 19.460938 L 23.464844 19.460938 C 23.550781 19.460938 23.554688 19.429688 23.480469 19.390625 L 23.535156 19.390625 C 23.621094 19.390625 23.625 19.359375 23.554688 19.320312 L 23.164062 19.125 C 23.191406 19.117188 23.210938 19.09375 23.21875 19.058594 C 23.253906 19.058594 23.28125 19.03125 23.289062 18.988281 C 23.324219 18.988281 23.351562 18.960938 23.359375 18.917969 C 23.394531 18.917969 23.421875 18.890625 23.429688 18.847656 C 23.464844 18.847656 23.492188 18.820312 23.5 18.777344 C 23.535156 18.777344 23.5625 18.75 23.570312 18.707031 C 23.613281 18.707031 23.644531 18.671875 23.644531 18.613281 L 23.644531 10.773438 C 23.644531 10.6875 23.589844 10.660156 23.519531 10.707031 " fill-opacity="1" fill-rule="nonzero"/></g><path fill="#ffffff" d="M 23.644531 10.773438 L 23.644531 18.613281 C 23.644531 18.695312 23.585938 18.734375 23.511719 18.695312 L 16.648438 15.316406 C 16.574219 15.28125 16.570312 15.210938 16.636719 15.164062 L 23.519531 10.707031 C 23.589844 10.660156 23.644531 10.6875 23.644531 10.773438 " fill-opacity="1" fill-rule="nonzero"/><path fill="#ffffff" d="M 23.535156 9.933594 C 23.621094 9.933594 23.632812 9.972656 23.5625 10.015625 L 15.324219 15.421875 C 15.253906 15.46875 15.140625 15.46875 15.070312 15.421875 L 6.691406 10.015625 C 6.621094 9.972656 6.632812 9.933594 6.714844 9.933594 L 23.535156 9.933594 " fill-opacity="1" fill-rule="nonzero"/><path fill="#ffffff" d="M 23.554688 19.320312 C 23.625 19.359375 23.621094 19.390625 23.535156 19.390625 L 6.773438 19.390625 C 6.6875 19.390625 6.683594 19.359375 6.757812 19.320312 L 14.195312 15.664062 C 14.269531 15.625 14.386719 15.632812 14.453125 15.679688 L 15.070312 16.097656 C 15.140625 16.144531 15.253906 16.144531 15.320312 16.097656 L 15.9375 15.679688 C 16.007812 15.632812 16.125 15.625 16.199219 15.664062 L 23.554688 19.320312 " fill-opacity="1" fill-rule="nonzero"/><path fill="#ffffff" d="M 13.757812 15.175781 C 13.828125 15.222656 13.824219 15.292969 13.75 15.332031 C 13.75 15.332031 9 17.59375 6.648438 18.785156 L 6.648438 10.652344 C 6.832031 10.773438 13.757812 15.175781 13.757812 15.175781 " fill-opacity="1" fill-rule="nonzero"/></svg>