<svg xmlns="http://www.w3.org/2000/svg" xmlns:xlink="http://www.w3.org/1999/xlink" width="40" zoomAndPan="magnify" viewBox="0 0 30 30.000001" height="40" preserveAspectRatio="xMidYMid meet" version="1.0"><defs><clipPath id="id1"><path d="M 9.195312 8.710938 L 20.804688 8.710938 L 20.804688 20.324219 L 9.195312 20.324219 Z M 9.195312 8.710938 " clip-rule="nonzero"/></clipPath><clipPath id="id2"><path d="M 1.066406 0 L 28.644531 0 L 28.644531 27.582031 L 1.066406 27.582031 Z M 1.066406 0 " clip-rule="nonzero"/></clipPath></defs><path fill="#ffffff" d="M 15 13.230469 C 14.292969 13.230469 13.714844 13.808594 13.714844 14.515625 C 13.714844 15.226562 14.292969 15.804688 15 15.804688 C 15.707031 15.804688 16.285156 15.226562 16.285156 14.515625 C 16.285156 13.808594 15.707031 13.230469 15 13.230469 Z M 15 13.230469 " fill-opacity="1" fill-rule="nonzero"/><path fill="#ffffff" d="M 16.730469 11.359375 L 13.269531 11.359375 C 12.488281 11.359375 11.84375 11.996094 11.84375 12.785156 L 11.84375 16.246094 C 11.84375 17.03125 12.480469 17.671875 13.269531 17.671875 L 16.730469 17.671875 C 17.511719 17.671875 18.15625 17.035156 18.15625 16.246094 L 18.15625 12.785156 C 18.152344 11.996094 17.511719 11.359375 16.730469 11.359375 Z M 15 16.453125 C 13.929688 16.453125 13.058594 15.582031 13.058594 14.511719 C 13.058594 13.441406 13.929688 12.570312 15 12.570312 C 16.070312 12.570312 16.941406 13.441406 16.941406 14.511719 C 16.933594 15.582031 16.066406 16.453125 15 16.453125 Z M 17.078125 12.898438 C 16.820312 12.898438 16.609375 12.6875 16.609375 12.429688 C 16.609375 12.171875 16.820312 11.960938 17.078125 11.960938 C 17.332031 11.960938 17.542969 12.171875 17.542969 12.429688 C 17.542969 12.691406 17.335938 12.898438 17.078125 12.898438 Z M 17.078125 12.898438 " fill-opacity="1" fill-rule="nonzero"/><g clip-path="url(#id1)"><path fill="#ffffff" d="M 15 8.710938 C 11.792969 8.710938 9.195312 11.308594 9.195312 14.515625 C 9.195312 17.722656 11.792969 20.324219 15 20.324219 C 18.207031 20.324219 20.804688 17.722656 20.804688 14.515625 C 20.800781 11.308594 18.203125 8.710938 15 8.710938 Z M 18.804688 16.246094 C 18.804688 17.390625 17.871094 18.328125 16.722656 18.328125 L 13.269531 18.328125 C 12.125 18.328125 11.1875 17.390625 11.1875 16.246094 L 11.1875 12.785156 C 11.1875 11.640625 12.125 10.707031 13.269531 10.707031 L 16.730469 10.707031 C 17.875 10.707031 18.8125 11.640625 18.8125 12.785156 L 18.8125 16.246094 Z M 18.804688 16.246094 " fill-opacity="1" fill-rule="nonzero"/></g><g clip-path="url(#id2)"><path fill="#000000" d="M 8.726562 0 C 4.496094 0 1.066406 3.429688 1.066406 7.660156 L 1.066406 19.917969 C 1.066406 24.148438 4.496094 27.582031 8.726562 27.582031 L 20.984375 27.582031 C 25.214844 27.582031 28.644531 24.148438 28.644531 19.917969 L 28.644531 7.660156 C 28.644531 3.429688 25.214844 0 20.984375 0 Z M 24.046875 3.066406 C 24.894531 3.066406 25.582031 3.75 25.582031 4.597656 C 25.582031 5.441406 24.894531 6.128906 24.046875 6.128906 C 23.203125 6.128906 22.515625 5.441406 22.515625 4.597656 C 22.515625 3.75 23.203125 3.066406 24.046875 3.066406 Z M 14.855469 6.128906 C 19.085938 6.128906 22.515625 9.558594 22.515625 13.789062 C 22.515625 18.019531 19.085938 21.453125 14.855469 21.453125 C 10.625 21.453125 7.195312 18.019531 7.195312 13.789062 C 7.195312 9.558594 10.625 6.128906 14.855469 6.128906 Z M 14.855469 9.195312 C 14.554688 9.195312 14.253906 9.222656 13.957031 9.28125 C 13.660156 9.339844 13.375 9.429688 13.097656 9.542969 C 12.816406 9.660156 12.550781 9.800781 12.300781 9.96875 C 12.050781 10.136719 11.816406 10.328125 11.605469 10.539062 C 11.390625 10.753906 11.199219 10.984375 11.03125 11.238281 C 10.863281 11.488281 10.722656 11.753906 10.609375 12.03125 C 10.492188 12.308594 10.40625 12.597656 10.347656 12.894531 C 10.289062 13.191406 10.257812 13.488281 10.257812 13.789062 C 10.257812 14.09375 10.289062 14.390625 10.347656 14.6875 C 10.40625 14.984375 10.492188 15.269531 10.609375 15.550781 C 10.722656 15.828125 10.863281 16.09375 11.03125 16.34375 C 11.199219 16.59375 11.390625 16.828125 11.605469 17.039062 C 11.816406 17.253906 12.050781 17.445312 12.300781 17.613281 C 12.550781 17.78125 12.816406 17.921875 13.097656 18.039062 C 13.375 18.152344 13.660156 18.238281 13.957031 18.296875 C 14.253906 18.359375 14.554688 18.386719 14.855469 18.386719 C 15.15625 18.386719 15.457031 18.359375 15.75 18.296875 C 16.046875 18.238281 16.335938 18.152344 16.613281 18.039062 C 16.894531 17.921875 17.15625 17.78125 17.410156 17.613281 C 17.660156 17.445312 17.890625 17.253906 18.105469 17.039062 C 18.320312 16.828125 18.507812 16.59375 18.675781 16.34375 C 18.84375 16.09375 18.984375 15.828125 19.101562 15.550781 C 19.21875 15.269531 19.304688 14.984375 19.363281 14.6875 C 19.421875 14.390625 19.453125 14.09375 19.453125 13.789062 C 19.453125 13.488281 19.421875 13.191406 19.363281 12.894531 C 19.304688 12.597656 19.21875 12.308594 19.101562 12.03125 C 18.984375 11.753906 18.84375 11.488281 18.675781 11.238281 C 18.507812 10.984375 18.320312 10.753906 18.105469 10.539062 C 17.890625 10.328125 17.660156 10.136719 17.410156 9.96875 C 17.15625 9.800781 16.894531 9.660156 16.613281 9.542969 C 16.335938 9.429688 16.046875 9.339844 15.75 9.28125 C 15.457031 9.222656 15.15625 9.195312 14.855469 9.195312 Z M 14.855469 9.195312 " fill-opacity="1" fill-rule="nonzero"/></g></svg>