<svg xmlns="http://www.w3.org/2000/svg" xmlns:xlink="http://www.w3.org/1999/xlink" width="40" zoomAndPan="magnify" viewBox="0 0 30 30.000001" height="40" preserveAspectRatio="xMidYMid meet" version="1.0"><defs><clipPath id="id1"><path d="M 4.640625 0 L 25.6875 0 L 25.6875 29.03125 L 4.640625 29.03125 Z M 4.640625 0 " clip-rule="nonzero"/></clipPath></defs><g clip-path="url(#id1)"><path fill="#000000" d="M 4.640625 25.910156 C 4.640625 27.628906 6.050781 29.019531 7.796875 29.019531 C 12.585938 28.980469 17.652344 29.019531 22.53125 29.019531 C 24.210938 29.019531 25.570312 27.730469 25.671875 26.105469 L 25.6875 2.988281 C 25.621094 1.332031 24.234375 0.0117188 22.53125 0.0117188 L 7.253906 0.0117188 C 5.765625 0.261719 4.640625 1.535156 4.640625 3.070312 C 4.644531 10.679688 4.640625 18.296875 4.640625 25.910156 Z M 6.300781 25.960938 L 6.300781 2.972656 L 17.597656 14.09375 C 17.804688 14.296875 17.804688 14.621094 17.597656 14.824219 Z M 7.105469 1.566406 L 22.417969 1.566406 C 23.328125 1.566406 23.84375 1.886719 24.027344 2.535156 L 16.050781 10.371094 Z M 7.171875 27.285156 L 15.96875 18.625 L 24.011719 26.542969 C 23.824219 27.082031 23.382812 27.273438 22.777344 27.285156 Z M 17.070312 17.527344 L 19.835938 14.820312 C 20.039062 14.621094 20.039062 14.296875 19.835938 14.09375 L 17.171875 11.472656 L 24.109375 4.640625 L 24.109375 24.453125 L 17.070312 17.523438 Z M 17.070312 17.527344 " fill-opacity="1" fill-rule="nonzero"/></g></svg>