<?xml version="1.0" standalone="no"?>
<!DOCTYPE svg PUBLIC "-//W3C//DTD SVG 20010904//EN"
 "http://www.w3.org/TR/2001/REC-SVG-20010904/DTD/svg10.dtd">
<svg version="1.0" xmlns="http://www.w3.org/2000/svg"
 width="1350.000000pt" height="1350.000000pt" viewBox="0 0 1350.000000 1350.000000"
 preserveAspectRatio="xMidYMid meet">

<g transform="translate(0.000000,1350.000000) scale(0.100000,-0.100000)"
fill="#000000" stroke="none">
<path d="M0 6750 l0 -6750 6750 0 6750 0 0 6750 0 6750 -6750 0 -6750 0 0
-6750z m9932 4351 c33 -36 53 -69 68 -117 22 -64 22 -73 16 -417 -5 -298 -5
-862 -2 -2359 l1 -246 -25 -28 c-67 -73 -169 -84 -770 -84 -467 0 -597 8 -937
61 -109 16 -252 35 -317 41 -135 12 -138 10 -150 -61 l-6 -38 -657 -7 c-873
-10 -1582 -1 -1726 20 -38 6 -81 41 -115 93 -16 23 -17 139 -20 1456 -3 1511
-2 1539 42 1593 13 15 25 35 29 45 3 9 13 17 22 17 8 0 15 4 15 9 0 5 39 18
88 29 81 19 136 21 857 31 424 5 1222 7 1775 5 553 -3 1136 -1 1295 5 160 5
331 7 380 5 l90 -3 47 -50z m-6303 -660 c24 -13 28 -36 8 -44 -8 -3 -43 -8
-79 -12 l-65 -7 -12 -417 c-20 -679 -28 -830 -46 -858 -41 -63 -61 11 -46 173
17 194 35 1044 22 1077 -9 22 -17 27 -45 27 -78 0 -126 24 -99 51 25 25 318
33 362 10z m690 -591 c-3 -449 -1 -571 9 -575 17 -6 15 -42 -4 -53 -10 -6 -18
-33 -25 -81 -10 -80 -14 -91 -34 -91 -17 0 -24 25 -27 100 l-3 55 -75 3 c-41
2 -107 1 -146 -3 l-71 -6 -6 -71 c-6 -74 -18 -93 -49 -77 -14 8 -18 22 -18 69
0 52 -3 61 -25 76 -32 21 -33 57 -1 72 23 10 23 11 30 239 3 125 9 367 12 538
4 170 10 321 14 335 9 36 37 38 51 3 14 -38 14 -370 -2 -775 -7 -181 -11 -330
-8 -332 7 -6 276 6 288 13 15 10 30 405 31 802 0 174 3 319 7 322 3 4 17 7 31
7 l24 0 -3 -570z m627 556 c30 -23 7 -50 -50 -58 -81 -11 -119 -37 -138 -96
-22 -64 -48 -475 -48 -754 l0 -198 84 0 c59 0 87 -4 95 -14 22 -26 2 -44 -57
-51 -103 -12 -105 -13 -97 -54 9 -51 36 -71 100 -71 95 0 98 -53 3 -70 -90
-17 -136 15 -167 114 -13 43 -24 62 -37 65 -22 4 -44 20 -44 32 0 5 10 19 23
31 22 23 22 28 29 373 11 523 26 626 100 710 42 49 161 72 204 41z m-209
-1778 c4 -13 7 -237 5 -498 -2 -261 -4 -878 -6 -1370 -2 -517 -10 -1024 -17
-1200 -7 -168 -13 -361 -14 -429 l0 -124 45 -11 c52 -13 60 -33 41 -98 -9 -29
-21 -42 -49 -56 -46 -22 -57 -57 -72 -237 -19 -239 -37 -290 -101 -290 -31 0
-35 4 -53 50 -17 42 -20 78 -21 233 -1 109 -6 187 -12 193 -7 7 -137 10 -369
10 -373 -1 -581 -9 -589 -21 -3 -5 -9 -100 -14 -212 -9 -216 -18 -254 -58
-264 -35 -9 -88 4 -109 27 -16 18 -19 44 -24 214 -6 220 -3 214 -91 249 -87
35 -102 95 -39 157 20 21 38 29 63 29 19 0 40 6 46 14 23 27 45 633 56 1526 4
261 10 583 16 715 5 132 13 454 19 715 6 261 15 506 20 544 10 76 32 116 73
130 79 29 109 -128 122 -639 8 -284 -4 -745 -40 -1623 -26 -642 -45 -1181 -45
-1296 l0 -69 248 7 c136 5 337 9 447 10 199 1 281 13 290 39 6 16 42 1051 55
1552 5 215 10 753 10 1197 l0 807 26 20 c19 15 41 21 80 21 46 0 54 -3 61 -22z
m4851 -1403 c2 -35 -8 -88 -33 -175 -91 -317 -126 -590 -127 -998 -1 -412 31
-664 97 -778 89 -155 197 -174 315 -56 113 114 162 207 218 417 78 289 90 392
102 930 12 519 33 691 86 712 9 3 31 -1 49 -10 45 -21 58 -67 51 -172 -2 -44
-10 -291 -15 -550 -6 -258 -17 -594 -26 -745 -8 -151 -20 -405 -25 -565 -10
-330 -28 -493 -66 -613 -66 -208 -218 -342 -396 -351 -102 -4 -162 16 -231 79
-95 87 -122 174 -62 202 36 16 73 -3 133 -71 106 -121 237 -122 344 -2 64 71
99 167 132 362 37 223 40 441 8 529 -9 24 -11 21 -42 -40 -79 -157 -161 -254
-262 -307 -46 -24 -64 -28 -143 -28 -68 0 -99 5 -128 19 -89 44 -176 172 -211
311 -41 165 -71 530 -63 770 14 379 91 974 142 1103 24 58 58 84 109 80 l41
-3 3 -50z m-2110 -27 c97 -45 191 -165 236 -303 49 -151 66 -394 42 -590 -62
-495 -210 -847 -461 -1100 -102 -103 -135 -124 -243 -151 -50 -13 -77 -25 -84
-38 -7 -14 -8 -87 -3 -225 14 -359 13 -405 -11 -438 -12 -15 -33 -35 -47 -43
-24 -13 -28 -13 -44 3 -38 37 -38 491 -3 1707 5 173 7 502 3 731 l-6 416 24
16 c33 24 66 21 80 -5 7 -12 15 -91 18 -180 4 -86 10 -160 14 -164 3 -3 12 9
20 27 73 173 85 195 148 257 95 96 217 126 317 80z m1230 0 c97 -45 191 -165
236 -303 49 -151 66 -394 42 -590 -62 -495 -210 -847 -461 -1100 -102 -103
-135 -124 -243 -151 -50 -13 -77 -25 -84 -38 -7 -14 -8 -87 -3 -225 14 -359
13 -405 -11 -438 -12 -15 -33 -35 -47 -43 -24 -13 -28 -13 -44 3 -38 37 -38
491 -3 1707 5 173 7 502 3 731 l-6 416 24 16 c33 24 66 21 80 -5 7 -12 15 -91
18 -180 4 -86 10 -160 14 -164 3 -3 12 9 20 27 73 173 85 195 148 257 95 96
217 126 317 80z m-2613 -73 c74 -20 156 -72 195 -127 17 -22 44 -84 62 -137
l32 -96 7 -755 c8 -864 16 -1022 66 -1395 33 -247 36 -367 8 -415 -23 -38 -64
-51 -91 -29 -46 38 -88 214 -98 414 -11 204 -32 220 -88 70 -69 -182 -243
-403 -355 -451 -39 -17 -118 -18 -164 -3 -59 20 -155 96 -205 161 -86 114
-142 266 -181 493 -21 125 -24 502 -4 645 60 437 217 748 431 849 46 22 68 26
140 25 99 -1 178 -24 284 -85 38 -22 71 -38 73 -35 2 2 7 89 10 192 8 272 -15
389 -92 464 -56 54 -136 38 -255 -50 -73 -54 -143 -89 -177 -90 -76 -1 -38
175 58 267 98 93 211 122 344 88z m-888 -3381 c15 -12 29 -33 31 -47 4 -36
-35 -46 -97 -23 -119 42 -171 -6 -171 -157 0 -62 5 -83 34 -144 19 -40 58
-107 87 -149 152 -225 229 -499 195 -691 -24 -137 -107 -275 -199 -332 -96
-59 -206 -45 -288 37 -70 71 -90 165 -40 192 29 15 48 3 77 -46 98 -167 248
-138 324 63 50 131 48 284 -5 451 -24 75 -36 98 -145 272 -91 144 -141 254
-147 319 -10 111 44 221 130 265 47 24 176 18 214 -10z m901 -19 c2 -22 -1
-89 -8 -148 -11 -112 -22 -342 -41 -887 -14 -416 -15 -412 26 -450 21 -20 31
-22 76 -16 38 5 57 3 75 -9 31 -20 30 -36 -1 -65 -34 -32 -116 -38 -165 -13
-84 44 -105 146 -96 468 13 429 55 1071 73 1123 20 56 57 54 61 -3z m2236 29
c20 -19 20 -24 0 -172 -8 -66 -14 -142 -12 -169 l3 -48 60 -8 c67 -9 90 -25
81 -55 -8 -24 -54 -42 -106 -42 -35 0 -38 -2 -44 -37 -11 -69 -6 -334 10 -507
25 -274 46 -357 99 -392 24 -16 27 -15 46 2 12 11 32 40 45 67 41 80 94 52 94
-51 0 -72 -21 -109 -77 -134 -64 -28 -146 -12 -207 41 -79 70 -126 351 -126
762 l0 259 -49 0 c-69 0 -101 14 -101 43 0 28 26 42 94 52 69 11 76 27 91 205
11 134 15 153 35 175 27 29 42 31 64 9z m1467 -47 c49 -33 69 -79 69 -163 0
-84 -31 -157 -88 -205 -49 -40 -200 -112 -286 -135 -43 -12 -74 -27 -82 -39
-31 -48 -49 -204 -49 -435 0 -205 2 -231 22 -296 66 -208 207 -266 309 -127
71 97 106 116 124 67 23 -60 -37 -166 -119 -209 -52 -26 -126 -36 -183 -24
-106 23 -197 149 -232 319 -53 262 -36 619 41 864 44 141 90 224 168 302 79
80 126 102 216 103 43 1 64 -4 90 -22z m-2565 -36 c50 -23 79 -59 100 -125 14
-42 17 -109 20 -381 4 -460 11 -616 34 -799 23 -188 17 -236 -31 -236 -38 0
-60 71 -75 243 -3 37 -9 65 -14 62 -5 -3 -16 -27 -25 -54 -17 -54 -94 -162
-144 -204 -86 -72 -206 -20 -274 118 -53 106 -62 163 -61 385 0 177 3 216 22
283 48 173 140 303 232 327 54 15 123 2 187 -34 l41 -24 7 82 c8 96 -7 200
-33 236 -30 40 -68 37 -137 -9 -72 -48 -112 -60 -121 -37 -18 46 26 128 91
167 40 25 127 25 181 0z"/>
<path d="M5831 10564 c0 -11 3 -14 6 -6 3 7 2 16 -1 19 -3 4 -6 -2 -5 -13z"/>
<path d="M5705 10530 c3 -5 8 -10 11 -10 2 0 4 5 4 10 0 6 -5 10 -11 10 -5 0
-7 -4 -4 -10z"/>
<path d="M5741 10510 c-7 -18 -10 -38 -5 -48 6 -13 9 -11 12 13 2 17 8 34 13
40 11 11 12 25 1 25 -4 0 -13 -14 -21 -30z"/>
<path d="M8114 10469 c-3 -6 -1 -16 5 -22 8 -8 11 -5 11 11 0 24 -5 28 -16 11z"/>
<path d="M7740 10401 c0 -5 7 -11 15 -15 8 -3 15 -1 15 3 0 5 -7 11 -15 15 -8
3 -15 1 -15 -3z"/>
<path d="M8131 10367 c-17 -17 -13 -25 14 -23 29 1 30 3 11 21 -10 10 -16 11
-25 2z"/>
<path d="M5820 10336 c0 -9 7 -16 16 -16 9 0 14 5 12 12 -6 18 -28 21 -28 4z"/>
<path d="M8101 10324 c0 -11 3 -14 6 -6 3 7 2 16 -1 19 -3 4 -6 -2 -5 -13z"/>
<path d="M7232 10310 c0 -14 2 -19 5 -12 2 6 2 18 0 25 -3 6 -5 1 -5 -13z"/>
<path d="M5697 10304 c-3 -4 1 -17 10 -30 13 -21 14 -24 0 -24 -8 0 -18 8 -21
17 -6 15 -8 15 -16 3 -7 -10 -5 -19 6 -27 10 -7 11 -13 5 -18 -6 -3 -11 -1
-11 4 0 6 -7 11 -15 11 -11 0 -14 -12 -14 -50 1 -28 6 -53 11 -56 11 -7 60 41
51 49 -3 4 -2 18 1 32 6 22 10 25 21 15 8 -6 19 -9 25 -5 17 11 39 -14 33 -36
-5 -17 -11 -20 -34 -15 -23 4 -30 0 -47 -29 -17 -28 -18 -36 -7 -51 11 -15 10
-22 -4 -40 l-16 -22 -17 27 -18 26 0 -37 c0 -20 5 -40 10 -43 8 -5 8 -11 1
-19 -7 -8 -10 -332 -10 -948 l-1 -935 313 -6 c171 -4 994 -7 1827 -8 1460 -1
1515 0 1521 18 31 83 42 142 46 243 5 115 16 165 40 175 9 3 13 -5 13 -23 1
-26 1 -26 15 -8 8 11 18 17 21 13 7 -7 44 30 44 45 0 19 19 6 28 -19 l10 -28
10 25 c13 33 38 55 46 41 4 -6 1 -19 -6 -30 -21 -33 2 -38 28 -6 35 45 49 59
72 75 25 17 29 38 7 46 -17 7 -20 49 -5 59 6 3 10 17 10 30 0 13 5 27 10 30 6
3 10 30 10 58 -1 47 -2 50 -15 33 -13 -17 -15 -17 -21 -3 -3 10 -14 17 -23 17
-13 0 -12 4 5 18 23 18 45 70 25 58 -13 -8 -45 20 -37 32 3 5 -8 6 -25 4 -20
-3 -31 -11 -35 -28 l-6 -24 -18 23 -18 22 5 -28 c3 -15 9 -27 14 -27 13 0 11
-44 -3 -58 -8 -8 -8 -15 2 -27 14 -17 7 -19 -21 -5 -10 6 -19 19 -19 30 0 20
-17 36 -27 26 -3 -3 -2 -11 4 -18 5 -7 9 -22 9 -33 -1 -21 -8 -22 -62 -10 -33
7 -34 7 -35 -67 0 -11 -8 -18 -18 -18 -23 0 -46 26 -32 34 6 4 8 13 5 21 -11
26 -26 3 -21 -30 5 -32 -6 -65 -18 -53 -4 3 -9 25 -11 48 -3 23 -9 52 -14 66
-5 13 -7 31 -4 39 4 9 1 15 -7 15 -10 0 -10 3 -1 12 18 18 15 32 -10 43 -13 6
-21 12 -19 15 2 3 -1 16 -9 29 -21 40 -23 86 -5 105 9 9 14 20 11 25 -3 5 -1
31 5 57 6 27 19 99 29 159 10 61 24 135 30 165 7 30 14 64 15 75 1 11 6 40 10
65 5 25 8 49 7 53 -2 5 2 6 7 2 6 -3 10 17 9 52 -2 91 28 272 55 330 7 17 6
28 -7 47 -9 14 -16 32 -16 39 0 32 -24 36 -85 16 -82 -27 -667 -321 -706 -355
-8 -8 -21 -14 -28 -14 -13 0 -64 26 -91 46 -8 6 -37 19 -65 29 -27 10 -55 22
-61 26 -14 11 -181 70 -191 68 -4 -1 -15 0 -23 4 -20 7 -67 17 -110 23 -95 13
-98 14 -93 33 7 26 -14 36 -22 10 -5 -14 -12 -18 -23 -14 -17 7 -121 7 -132 0
-3 -2 -39 0 -79 6 -60 7 -75 6 -88 -6 -16 -17 -68 -21 -58 -5 3 6 1 10 -4 10
-6 0 -11 -6 -11 -12 0 -12 -250 -70 -310 -72 -14 0 -29 -5 -35 -11 -5 -7 -44
-24 -85 -40 -85 -31 -172 -70 -278 -123 -59 -30 -76 -34 -91 -25 -10 6 -37 17
-60 23 -22 6 -41 14 -41 18 0 5 -7 17 -16 28 -15 18 -15 18 -8 -5 3 -13 2 -22
-2 -19 -42 20 -95 41 -109 42 -18 2 -41 21 -48 39 -5 14 -10 15 -26 6 -15 -10
-26 -9 -52 2 -19 8 -38 14 -44 15 -5 0 -30 6 -55 13 -59 17 -117 16 -135 -3
-9 -8 -22 -13 -29 -10 -10 4 -15 -9 -20 -48 -9 -70 -10 -153 -3 -165 3 -5 2
-15 -4 -23 -5 -8 -9 -11 -9 -7 0 5 -12 -1 -27 -13 -20 -16 -29 -18 -32 -9 -2
8 -13 20 -23 29 -12 10 -17 21 -13 33 10 26 23 21 30 -13 8 -37 28 -52 21 -16
-3 19 1 29 15 36 23 13 29 96 6 87 -8 -3 -20 -1 -28 4 -8 5 -9 9 -3 9 6 0 9
13 6 30 -2 16 -7 28 -11 26 -3 -2 -7 18 -8 45 -2 52 1 55 57 50 14 -1 22 1 18
5 -4 3 -3 16 3 27 6 10 7 17 2 14 -5 -3 -15 8 -22 24 -13 29 -14 29 -32 13
-21 -19 -24 -9 -9 32 l10 27 20 -23 c25 -29 37 -19 21 17 -9 19 -9 29 -2 31
13 4 15 72 2 72 -5 0 -11 -7 -15 -15 -7 -20 -26 -19 -26 0 0 27 -30 75 -46 75
-9 0 -14 -7 -12 -17 2 -9 -13 -33 -33 -52 -19 -20 -40 -48 -47 -63 -14 -34
-30 -36 -38 -4 -4 17 -11 22 -25 19 -10 -3 -20 -1 -20 3 -1 5 -2 24 -4 41 -1
18 -7 39 -13 46 -9 10 -8 18 2 33 12 16 11 21 -1 33 -13 12 -14 11 -9 -10 7
-22 6 -23 -7 -6 -11 13 -16 15 -20 5 -3 -10 -9 -9 -24 5 -11 9 -22 14 -26 11z
m63 -43 c0 -5 -7 -11 -14 -14 -10 -4 -13 -1 -9 9 6 15 23 19 23 5z m247 -113
c-3 -8 -6 -5 -6 6 -1 11 2 17 5 13 3 -3 4 -12 1 -19z m-218 -15 c8 -18 9 -29
1 -37 -14 -14 -32 5 -35 38 -4 34 18 34 34 -1z m11 -93 c0 -11 -7 -20 -15 -20
-17 0 -39 36 -30 50 10 16 45 -8 45 -30z m99 26 c13 -15 8 -63 -9 -80 -14 -14
-35 8 -24 26 5 7 7 25 5 40 -3 30 10 36 28 14z m51 -23 c0 -5 -7 -17 -15 -27
-15 -20 -20 -10 -9 18 6 16 24 22 24 9z m-252 -47 c3 -11 -1 -17 -9 -14 -7 2
-13 12 -15 22 -3 23 20 15 24 -8z m162 -53 c0 -16 -26 -17 -35 -2 -4 5 -4 22
0 37 l7 27 13 -25 c8 -14 14 -31 15 -37z m200 48 c0 -6 -4 -13 -10 -16 -5 -3
-10 1 -10 9 0 9 5 16 10 16 6 0 10 -4 10 -9z m-97 -63 c-10 -11 -19 -15 -21
-8 -5 15 18 41 30 34 5 -3 1 -15 -9 -26z m-153 12 c0 -5 -7 -10 -16 -10 -8 0
-12 5 -9 10 3 6 10 10 16 10 5 0 9 -4 9 -10z m-46 -48 c3 -5 -1 -9 -9 -9 -8 0
-12 4 -9 9 3 4 7 8 9 8 2 0 6 -4 9 -8z m139 -116 c-4 -6 -8 -15 -9 -21 0 -5
-2 -16 -2 -23 -3 -20 -24 -10 -33 15 -11 29 17 69 37 52 7 -6 11 -16 7 -23z
m47 8 c0 -13 3 -14 15 -4 12 10 18 8 34 -11 23 -28 12 -46 -18 -29 -25 13 -29
6 -35 -57 -2 -24 -9 -49 -15 -57 -18 -22 -4 -63 22 -62 12 1 23 -6 24 -14 2
-10 -5 -15 -21 -15 -13 0 -23 2 -20 4 2 2 -8 14 -21 27 -29 27 -30 33 -10 48
13 10 23 75 16 101 -2 6 -3 27 -2 48 1 26 6 37 16 37 8 0 15 -7 15 -16z m-155
-163 c3 -5 1 -12 -5 -16 -5 -3 -10 1 -10 9 0 18 6 21 15 7z m177 -13 c-7 -7
-12 -8 -12 -2 0 14 12 26 19 19 2 -3 -1 -11 -7 -17z m70 -23 c6 -14 15 -25 20
-25 4 0 8 -9 8 -20 0 -11 -6 -20 -13 -20 -19 0 -53 27 -45 36 4 4 3 13 -3 20
-11 14 -4 34 12 34 5 0 15 -11 21 -25z m-45 -87 c-3 -8 -6 -5 -6 6 -1 11 2 17
5 13 3 -3 4 -12 1 -19z m33 -28 c0 -5 -7 -10 -15 -10 -8 0 -15 5 -15 10 0 6 7
10 15 10 8 0 15 -4 15 -10z m-71 -60 c0 -9 -2 -11 -5 -3 -3 7 -11 10 -19 7
-15 -6 -29 11 -20 26 8 14 45 -11 44 -30z m88 21 c17 -21 28 -77 15 -85 -4 -3
-14 -1 -22 4 -12 8 -13 13 -2 30 17 27 15 32 -7 25 -14 -4 -20 0 -23 20 -6 31
15 34 39 6z m-43 -57 c9 -22 8 -24 -9 -18 -8 4 -15 12 -15 20 0 19 16 18 24
-2z m-34 -21 c0 -31 -17 -50 -31 -36 -10 10 -9 17 6 33 22 24 25 25 25 3z m80
-38 c0 -8 -4 -15 -10 -15 -5 0 -10 7 -10 15 0 8 5 15 10 15 6 0 10 -7 10 -15z
m-140 -9 c0 -2 -7 -9 -15 -16 -12 -10 -15 -10 -15 4 0 9 7 16 15 16 8 0 15 -2
15 -4z m-90 -37 c0 -6 -4 -7 -10 -4 -5 3 -10 11 -10 16 0 6 5 7 10 4 6 -3 10
-11 10 -16z m2545 -20 c-11 -4 -14 -8 -7 -8 14 -1 17 -41 2 -41 -5 0 -10 -9
-10 -20 0 -13 7 -20 20 -20 21 0 28 -26 8 -32 -7 -3 -6 -7 5 -11 9 -3 17 -2
17 3 0 6 6 10 13 10 8 0 22 9 31 19 13 14 27 18 51 15 19 -2 36 0 40 5 9 16
134 -63 135 -86 0 -6 3 -13 8 -15 19 -8 50 -61 45 -76 -3 -9 -3 -14 2 -10 9 9
34 -21 35 -41 0 -8 7 -22 15 -31 14 -15 43 -128 52 -200 3 -19 -1 -55 -7 -80
-7 -25 -14 -60 -17 -77 -6 -36 -23 -45 -23 -13 0 18 -3 19 -20 10 -21 -11 -28
-40 -10 -40 6 0 10 -7 10 -15 0 -10 -14 -17 -40 -21 -38 -6 -40 -8 -39 -43 2
-51 0 -61 -11 -61 -15 0 -70 -61 -64 -71 2 -4 -13 -17 -35 -27 -28 -14 -41
-16 -45 -8 -2 6 -14 0 -29 -16 -13 -16 -30 -28 -37 -28 -22 0 -80 -23 -80 -32
0 -13 -33 -9 -54 7 -27 21 -39 19 -33 -5 5 -18 1 -19 -42 -14 -25 3 -55 9 -66
14 -11 5 -38 12 -60 16 -44 8 -41 8 -70 18 -57 21 -66 28 -75 51 -10 27 -30
34 -30 10 0 -24 0 -24 -71 38 l-21 19 22 23 c22 23 15 41 -10 25 -7 -4 -20 -6
-28 -2 -10 3 -13 1 -8 -6 4 -7 3 -12 -3 -12 -19 0 -21 19 -4 28 13 8 14 13 6
24 -7 7 -8 19 -4 26 5 9 11 5 19 -13 7 -16 17 -23 27 -19 19 8 19 23 -1 31 -8
3 -13 12 -10 19 4 10 -3 14 -23 14 -15 0 -30 3 -34 6 -9 10 4 34 18 34 22 0
25 14 12 56 -10 32 -16 38 -34 36 -15 -2 -23 2 -23 11 0 11 7 13 21 10 16 -4
20 -2 17 8 -3 8 -10 14 -15 14 -19 0 -28 16 -28 48 0 33 26 61 55 62 23 0 24
32 1 38 -19 4 -20 11 -15 54 9 73 11 78 31 62 15 -13 16 -11 9 22 -6 32 -2 40
29 72 19 20 35 38 35 41 0 14 60 66 98 85 23 12 42 27 42 34 0 14 84 52 138
63 18 4 35 10 37 15 3 4 38 8 78 7 46 0 65 -4 52 -9z m-2290 -29 c3 -5 1 -10
-4 -10 -6 0 -11 5 -11 10 0 6 2 10 4 10 3 0 8 -4 11 -10z m2425 -29 c0 -14 -2
-14 -10 -1 -9 13 -11 13 -21 0 -9 -13 -10 -12 -5 3 3 10 6 23 6 29 0 6 6 6 15
-2 8 -7 15 -20 15 -29z m-71 -9 c9 -30 9 -30 -15 -20 -25 12 -33 43 -11 51 16
6 16 5 26 -31z m-2349 8 c0 -5 -4 -10 -10 -10 -5 0 -10 5 -10 10 0 6 5 10 10
10 6 0 10 -4 10 -10z m-139 -56 c11 -31 8 -36 -26 -40 -27 -3 -32 13 -15 47
15 26 29 24 41 -7z m117 9 c2 -7 -3 -13 -12 -13 -8 0 -17 -4 -20 -9 -4 -5 3
-7 14 -4 15 4 20 0 20 -13 0 -26 -20 -53 -27 -36 -6 16 -30 16 -35 0 -3 -8
-10 -3 -18 11 -11 22 -10 27 10 43 12 10 18 18 14 18 -5 0 -2 5 6 10 19 13 42
9 48 -7z m-158 -88 c0 -14 -2 -25 -4 -25 -2 0 -6 11 -8 25 -3 14 -1 25 3 25 5
0 9 -11 9 -25z m65 -15 c3 -5 1 -10 -4 -10 -6 0 -11 5 -11 10 0 6 2 10 4 10 3
0 8 -4 11 -10z m115 -31 c0 -22 -4 -38 -8 -35 -8 5 -4 76 4 76 2 0 4 -18 4
-41z m-70 16 c0 -2 -9 -9 -20 -15 -16 -9 -18 -8 -14 5 5 13 34 22 34 10z
m1119 -75 c30 -28 33 -29 38 -11 3 13 11 17 24 14 11 -3 17 -8 14 -11 -2 -3
-1 -10 4 -16 16 -19 -16 -73 -41 -71 -22 2 -43 39 -31 57 4 7 1 8 -6 4 -8 -5
-14 0 -18 13 -3 12 -13 21 -24 21 -12 0 -16 5 -13 15 8 21 15 19 53 -15z
m-139 10 c0 -5 -2 -10 -4 -10 -3 0 -8 5 -11 10 -3 6 -1 10 4 10 6 0 11 -4 11
-10z m-20 -24 c0 -3 -4 -8 -10 -11 -5 -3 -10 -1 -10 4 0 6 5 11 10 11 6 0 10
-2 10 -4z m2672 -8 c3 -7 -3 -21 -13 -31 -9 -10 -20 -33 -24 -50 -4 -20 -9
-27 -12 -17 -3 8 -12 19 -20 23 -14 9 -9 51 10 75 12 16 54 16 59 0z m-3892
-8 c0 -5 -4 -10 -10 -10 -5 0 -10 5 -10 10 0 6 5 10 10 10 6 0 10 -4 10 -10z
m176 -13 c10 -21 8 -23 -13 -19 -26 5 -25 4 -17 26 8 22 17 20 30 -7z m954 3
c0 -5 -2 -10 -4 -10 -3 0 -8 5 -11 10 -3 6 -1 10 4 10 6 0 11 -4 11 -10z m57
4 c-3 -3 -12 -4 -19 -1 -8 3 -5 6 6 6 11 1 17 -2 13 -5z m179 -24 c8 0 14 -8
14 -17 0 -14 -2 -15 -9 -4 -5 7 -13 11 -19 7 -13 -8 -24 22 -15 37 5 8 9 6 11
-5 2 -10 10 -18 18 -18z m-72 -38 c-4 -19 -3 -23 4 -13 6 9 17 11 28 7 16 -6
14 -10 -15 -22 -19 -8 -35 -13 -37 -12 -7 8 -7 55 -1 66 13 20 28 3 21 -26z
m251 0 c9 -30 29 -39 31 -14 3 25 5 26 18 9 8 -10 11 -27 8 -39 -4 -16 -2 -20
10 -15 12 4 19 -5 28 -36 26 -92 28 -117 13 -133 -13 -12 -12 -14 1 -14 13 0
15 -9 10 -47 -4 -27 -12 -53 -20 -59 -7 -6 -11 -20 -8 -32 5 -15 -5 -32 -35
-62 -23 -23 -41 -48 -41 -55 0 -9 -6 -12 -15 -9 -10 4 -15 0 -15 -14 0 -23
-54 -61 -97 -67 -15 -2 -42 -8 -60 -14 -38 -11 -155 12 -179 36 -11 12 -18 13
-23 5 -12 -20 -62 9 -55 31 4 13 0 20 -14 23 -13 4 -18 13 -17 32 1 24 5 27
38 27 21 0 36 4 34 10 -2 5 3 15 12 22 19 15 34 17 26 3 -7 -11 -3 -12 19 -4
12 5 13 9 3 25 -10 17 -9 22 6 33 19 15 22 33 6 38 -16 5 28 76 52 83 11 4 26
1 34 -5 21 -18 133 -24 161 -10 21 12 45 55 51 90 3 21 -26 118 -38 125 -5 4
-9 14 -9 23 1 15 2 15 11 -1 6 -9 14 -15 20 -12 12 8 12 45 -1 45 -5 0 -10 5
-10 11 0 24 36 2 45 -29z m-1505 16 c0 -7 -11 -14 -25 -14 -14 -1 -25 0 -25 2
0 4 33 20 48 23 1 1 2 -5 2 -11z m1117 -20 c-3 -8 -6 -5 -6 6 -1 11 2 17 5 13
3 -3 4 -12 1 -19z m-962 -8 c3 -5 1 -10 -4 -10 -6 0 -11 5 -11 10 0 6 2 10 4
10 3 0 8 -4 11 -10z m-275 -19 c0 -6 -4 -13 -10 -16 -5 -3 -10 1 -10 9 0 9 5
16 10 16 6 0 10 -4 10 -9z m3792 -23 c19 -19 22 -20 33 -5 23 32 35 19 20 -23
-8 -22 -12 -40 -8 -40 3 0 0 -7 -7 -15 -11 -13 -15 -13 -22 -3 -8 10 -11 10
-15 0 -2 -6 -10 -9 -16 -6 -9 5 -9 4 -1 -5 9 -10 8 -19 -2 -39 -8 -15 -14 -33
-14 -39 0 -7 -7 -13 -15 -13 -17 0 -20 -16 -5 -25 6 -4 5 -12 -4 -21 -19 -19
-25 -18 -19 4 2 10 -3 24 -11 31 -9 8 -16 10 -16 5 -1 -14 -29 39 -30 54 0 7
4 11 8 8 4 -2 14 9 21 25 7 16 20 29 29 29 12 0 13 -3 5 -8 -8 -5 -9 -13 -3
-22 6 -8 10 -26 11 -40 2 -24 2 -24 6 -2 2 12 9 22 15 22 7 0 8 16 4 45 -6 37
-4 45 8 45 9 0 16 -5 16 -12 0 -6 2 -9 5 -6 3 3 -1 17 -8 31 -8 15 -17 24 -20
20 -4 -3 -7 1 -7 10 0 23 16 21 42 -5z m192 -1 c-3 -10 0 -24 6 -32 9 -11 9
-15 1 -15 -6 0 -11 5 -11 10 0 6 -7 10 -15 10 -9 0 -15 9 -15 24 0 19 5 24 20
23 15 -1 18 -6 14 -20z m-2879 3 c3 -5 1 -10 -4 -10 -6 0 -11 5 -11 10 0 6 2
10 4 10 3 0 8 -4 11 -10z m2822 -6 c12 -11 13 -18 4 -27 -6 -6 -11 -19 -11
-29 0 -18 -16 -23 -44 -12 -20 8 -21 38 -2 53 11 10 15 8 19 -6 3 -12 5 -8 6
10 1 31 6 33 28 11z m-2634 -32 c-3 -8 0 -18 8 -23 11 -6 11 -11 1 -21 -9 -9
-12 -8 -12 5 0 10 -7 20 -15 23 -18 7 -20 41 -2 47 15 5 27 -12 20 -31z m-59
-44 c-3 -13 -8 -24 -9 -26 -4 -5 -35 10 -35 18 0 5 34 26 48 29 2 1 0 -9 -4
-21z m48 -26 c-7 -2 -12 -13 -12 -24 0 -17 -3 -18 -15 -8 -8 7 -15 16 -15 21
0 5 7 9 15 9 8 0 15 5 15 11 0 5 5 7 12 3 9 -6 9 -9 0 -12z m2652 -27 c3 -8
-3 -19 -13 -25 -17 -9 -18 -7 -7 15 13 29 12 29 20 10z m-84 -5 c0 -5 -5 -10
-11 -10 -5 0 -7 5 -4 10 3 6 8 10 11 10 2 0 4 -4 4 -10z m-30 -51 c0 -5 -7 -9
-15 -9 -9 0 -12 6 -9 15 6 15 24 11 24 -6z m-2753 -56 c-3 -10 -5 -4 -5 12 0
17 2 24 5 18 2 -7 2 -21 0 -30z m33 -10 c0 -15 -3 -23 -7 -19 -10 10 -12 56
-1 50 4 -3 8 -17 8 -31z m1042 17 c4 -28 2 -33 -15 -36 -13 -2 -17 2 -13 13 3
8 6 19 6 24 0 12 20 12 22 -1z m-1022 -95 c0 -8 -4 -15 -10 -15 -5 0 -10 7
-10 15 0 8 5 15 10 15 6 0 10 -7 10 -15z m10 -39 c0 -3 -4 -8 -10 -11 -5 -3
-10 -1 -10 4 0 6 5 11 10 11 6 0 10 -2 10 -4z m2286 -25 c19 -1 33 -45 20 -61
-13 -18 -91 -16 -181 4 -11 2 -26 5 -32 5 -7 1 -13 7 -13 14 0 16 80 40 103
31 9 -3 17 -2 17 3 0 6 17 9 38 7 20 -2 42 -3 48 -3z"/>
<path d="M8313 9190 c-24 -30 -28 -40 -15 -40 14 0 33 17 35 31 2 8 6 20 10
27 16 24 -8 11 -30 -18z"/>
<path d="M8245 9169 c-10 -15 3 -25 16 -12 7 7 7 13 1 17 -6 3 -14 1 -17 -5z"/>
<path d="M8197 9153 c-12 -12 -7 -30 8 -30 8 0 15 9 15 19 0 18 -11 24 -23 11z"/>
<path d="M8426 9114 c-3 -8 -2 -12 4 -9 6 3 10 1 10 -5 0 -6 5 -8 10 -5 15 9
12 35 -4 35 -8 0 -17 -7 -20 -16z"/>
<path d="M8324 9109 c-9 -15 11 -33 30 -26 9 4 13 13 10 22 -7 17 -30 20 -40
4z"/>
<path d="M8231 9084 c0 -11 3 -14 6 -6 3 7 2 16 -1 19 -3 4 -6 -2 -5 -13z"/>
<path d="M8525 9090 c-4 -6 -3 -16 3 -22 6 -6 12 -6 17 2 4 6 3 16 -3 22 -6 6
-12 6 -17 -2z"/>
<path d="M8150 9070 c0 -5 7 -10 15 -10 8 0 15 5 15 10 0 6 -7 10 -15 10 -8 0
-15 -4 -15 -10z"/>
<path d="M8290 9065 c-1 -5 -2 -18 -1 -27 2 -12 -3 -16 -12 -12 -19 7 -29 -22
-13 -35 20 -17 38 11 33 51 -2 18 -5 29 -7 23z"/>
<path d="M8310 9056 c0 -9 5 -16 10 -16 6 0 10 4 10 9 0 6 -4 13 -10 16 -5 3
-10 -1 -10 -9z"/>
<path d="M8360 9037 c0 -28 -5 -35 -34 -45 -19 -7 -54 -31 -78 -52 -31 -29
-44 -36 -46 -25 -3 12 -8 13 -24 4 -18 -10 -20 -9 -15 5 8 21 -2 20 -19 -1
-22 -29 -17 -46 10 -41 24 5 25 3 23 -46 -1 -28 4 -64 11 -81 12 -28 60 -65
85 -65 7 0 24 -6 39 -14 25 -14 159 -19 155 -7 -4 14 39 56 55 53 23 -5 34 19
15 33 -13 9 -15 19 -8 43 9 29 5 59 -19 135 -5 16 -4 27 1 27 5 0 9 7 9 15 0
17 -17 20 -22 4 -4 -11 -68 36 -67 49 3 18 -2 32 -11 32 -5 0 -10 -9 -10 -20
0 -28 -19 -25 -30 5 -13 34 -20 31 -20 -8z"/>
<path d="M8492 9050 c0 -14 2 -19 5 -12 2 6 2 18 0 25 -3 6 -5 1 -5 -13z"/>
<path d="M8601 9065 c1 -19 18 -51 18 -35 0 8 -4 22 -9 30 -5 8 -9 11 -9 5z"/>
<path d="M7895 9011 c-8 -15 3 -31 21 -31 9 0 14 7 12 17 -4 20 -24 28 -33 14z"/>
<path d="M8480 9010 c0 -13 18 -22 24 -11 3 5 -1 11 -9 15 -8 3 -15 1 -15 -4z"/>
<path d="M8565 9000 c-3 -5 -1 -10 4 -10 6 0 11 5 11 10 0 6 -2 10 -4 10 -3 0
-8 -4 -11 -10z"/>
<path d="M7976 8915 c4 -8 8 -15 10 -15 2 0 4 7 4 15 0 8 -4 15 -10 15 -5 0
-7 -7 -4 -15z"/>
<path d="M7906 8883 c-6 -14 -5 -15 5 -6 7 7 10 15 7 18 -3 3 -9 -2 -12 -12z"/>
<path d="M8541 8864 c0 -11 3 -14 6 -6 3 7 2 16 -1 19 -3 4 -6 -2 -5 -13z"/>
<path d="M8020 8860 c-8 -5 -18 -6 -24 -3 -5 4 -7 -1 -3 -11 4 -10 7 -23 7
-29 0 -8 19 -12 50 -12 34 0 50 4 50 13 0 8 -10 12 -27 10 -22 -2 -27 1 -25
14 3 21 -10 29 -28 18z"/>
<path d="M8700 8850 c0 -5 7 -10 15 -10 8 0 15 5 15 10 0 6 -7 10 -15 10 -8 0
-15 -4 -15 -10z"/>
<path d="M7895 8840 c-3 -6 1 -13 10 -16 19 -8 30 0 20 15 -8 14 -22 14 -30 1z"/>
<path d="M8151 8824 c0 -11 3 -14 6 -6 3 7 2 16 -1 19 -3 4 -6 -2 -5 -13z"/>
<path d="M8735 8830 c-4 -6 -3 -16 3 -22 6 -6 12 -6 17 2 4 6 3 16 -3 22 -6 6
-12 6 -17 -2z"/>
<path d="M7850 8820 c-9 -6 -10 -10 -3 -10 6 0 15 5 18 10 8 12 4 12 -15 0z"/>
<path d="M7947 8784 c-4 -4 -7 -18 -7 -31 0 -13 -7 -26 -15 -29 -17 -7 -10
-24 9 -24 20 0 38 43 29 68 -5 13 -12 20 -16 16z"/>
<path d="M8114 8776 c-7 -19 3 -36 22 -36 10 0 14 8 12 22 -4 26 -26 36 -34
14z"/>
<path d="M8060 8735 c0 -10 7 -15 18 -13 21 4 19 22 -2 26 -10 2 -16 -3 -16
-13z"/>
<path d="M7872 8715 c3 -33 16 -33 14 0 0 14 -4 25 -8 25 -4 0 -7 -11 -6 -25z"/>
<path d="M7800 8695 c0 -9 5 -15 11 -13 6 2 11 8 11 13 0 5 -5 11 -11 13 -6 2
-11 -4 -11 -13z"/>
<path d="M8042 8690 c-12 -12 -22 -18 -22 -15 0 12 -38 -31 -44 -50 -5 -18 -1
-20 34 -21 32 0 40 3 40 18 0 10 5 18 11 18 6 0 9 7 5 15 -3 8 -1 15 3 15 9 0
9 25 0 35 -3 2 -15 -4 -27 -15z"/>
<path d="M8786 8695 c-3 -9 0 -15 9 -15 8 0 15 7 15 15 0 8 -4 15 -9 15 -5 0
-11 -7 -15 -15z"/>
<path d="M8721 8668 c0 -28 2 -30 9 -13 12 28 12 45 0 45 -5 0 -10 -15 -9 -32z"/>
<path d="M8112 8648 c6 -18 28 -21 28 -4 0 9 -7 16 -16 16 -9 0 -14 -5 -12
-12z"/>
<path d="M8183 8645 c-17 -19 -16 -35 2 -35 9 0 15 9 15 25 0 29 -1 29 -17 10z"/>
<path d="M8297 8621 c-6 -32 -4 -35 22 -26 26 8 27 41 2 48 -15 3 -20 -2 -24
-22z"/>
<path d="M8410 8640 c0 -5 5 -10 10 -10 6 0 10 5 10 10 0 6 -4 10 -10 10 -5 0
-10 -4 -10 -10z"/>
<path d="M8568 8612 c-14 -24 -14 -29 -1 -41 13 -12 14 -10 12 10 -2 13 0 30
5 37 4 7 6 15 4 17 -2 3 -11 -8 -20 -23z"/>
<path d="M7930 8620 c0 -5 5 -10 11 -10 5 0 7 5 4 10 -3 6 -8 10 -11 10 -2 0
-4 -4 -4 -10z"/>
<path d="M8440 8616 c0 -8 5 -18 10 -21 6 -3 10 1 10 9 0 8 -4 18 -10 21 -5 3
-10 -1 -10 -9z"/>
<path d="M7850 8600 c0 -5 5 -10 10 -10 6 0 10 5 10 10 0 6 -4 10 -10 10 -5 0
-10 -4 -10 -10z"/>
<path d="M8120 8579 c0 -16 4 -20 18 -14 13 5 14 3 5 -6 -18 -18 -4 -39 28
-39 29 0 40 -14 17 -23 -10 -4 -10 -7 0 -18 10 -11 12 -11 12 2 0 7 8 -1 17
-19 9 -18 19 -29 22 -24 4 6 21 5 46 -4 22 -7 50 -14 62 -14 12 0 25 -4 28
-10 10 -16 55 -11 62 7 9 24 -14 126 -32 139 -13 10 -12 12 7 17 17 5 20 9 11
18 -7 7 -17 8 -25 3 -7 -5 -19 -9 -27 -9 -18 0 -27 -25 -9 -25 10 0 9 -3 -2
-10 -23 -15 -38 -12 -43 8 -4 15 -6 15 -11 -3 -4 -11 -25 -31 -47 -43 -40 -23
-40 -23 -46 -3 -3 12 -9 21 -14 21 -5 0 -15 16 -23 35 -17 41 -56 50 -56 14z"/>
<path d="M7981 8581 c-7 -5 -10 -14 -7 -20 6 -10 -6 -15 -26 -12 -5 0 -8 -15
-8 -34 0 -19 5 -35 10 -35 6 0 10 12 10 26 0 14 4 23 10 19 6 -3 10 0 10 7 0
8 5 5 11 -5 8 -14 8 -22 0 -30 -6 -6 -11 -7 -11 -2 0 11 -29 -27 -30 -38 0 -5
7 -1 16 7 23 24 37 19 20 -6 -9 -12 -16 -33 -16 -45 0 -16 -6 -23 -20 -23 -12
0 -20 -7 -20 -16 0 -12 7 -15 25 -12 21 4 25 1 25 -18 0 -29 26 -32 33 -4 3
12 0 20 -8 20 -8 0 -11 9 -7 25 3 16 0 25 -9 25 -10 0 -10 3 -2 11 6 6 9 18 6
26 -5 12 -1 14 14 9 17 -6 21 -1 26 26 2 18 -2 45 -9 60 -8 15 -14 31 -13 35
1 12 -15 14 -30 4z"/>
<path d="M7935 8570 c-3 -5 -1 -10 4 -10 6 0 11 5 11 10 0 6 -2 10 -4 10 -3 0
-8 -4 -11 -10z"/>
<path d="M8097 8537 c-11 -29 -9 -43 4 -30 6 6 9 19 7 29 -3 18 -4 18 -11 1z"/>
<path d="M8457 8523 c-13 -12 -7 -43 8 -43 9 0 15 9 15 25 0 24 -10 32 -23 18z"/>
<path d="M8650 8515 c0 -8 5 -15 10 -15 6 0 10 7 10 15 0 8 -4 15 -10 15 -5 0
-10 -7 -10 -15z"/>
<path d="M8711 8514 c0 -11 3 -14 6 -6 3 7 2 16 -1 19 -3 4 -6 -2 -5 -13z"/>
<path d="M8132 8462 c0 -43 8 -52 25 -29 7 8 5 21 -8 41 l-18 29 1 -41z"/>
<path d="M7906 8461 c-3 -5 1 -14 10 -21 12 -11 12 -15 2 -23 -10 -6 -9 -7 4
-4 9 3 19 1 22 -6 2 -7 5 -7 5 -1 1 5 -8 20 -18 31 -11 12 -17 24 -14 27 4 3
4 6 0 6 -3 0 -8 -4 -11 -9z"/>
<path d="M8540 8455 c0 -17 22 -35 42 -35 11 0 18 7 18 19 0 13 -9 20 -30 23
-18 3 -30 0 -30 -7z"/>
<path d="M8070 8440 c0 -5 5 -10 11 -10 5 0 7 5 4 10 -3 6 -8 10 -11 10 -2 0
-4 -4 -4 -10z"/>
<path d="M8017 8414 c-3 -3 -3 -12 0 -20 4 -11 9 -12 19 -3 8 6 14 15 14 20 0
10 -24 12 -33 3z"/>
<path d="M8190 8380 c0 -5 7 -10 15 -10 8 0 15 5 15 10 0 6 -7 10 -15 10 -8 0
-15 -4 -15 -10z"/>
<path d="M8272 8349 c-7 -10 -8 -19 -3 -19 13 0 33 28 23 33 -4 3 -13 -3 -20
-14z"/>
<path d="M8455 8343 c2 -15 4 -31 4 -35 1 -5 8 -8 16 -8 16 0 20 21 8 34 -5 4
-8 13 -8 19 0 5 -5 12 -12 14 -8 3 -11 -5 -8 -24z"/>
<path d="M8615 8360 c4 -6 11 -8 16 -5 14 9 11 15 -7 15 -8 0 -12 -5 -9 -10z"/>
<path d="M8095 8297 c-20 -29 -10 -37 29 -25 22 7 33 16 31 27 -3 23 -43 22
-60 -2z"/>
<path d="M8505 8310 c-4 -6 1 -18 11 -25 27 -20 35 -18 25 7 -9 26 -26 34 -36
18z"/>
<path d="M8560 8311 c0 -6 5 -13 10 -16 6 -3 10 1 10 9 0 9 -4 16 -10 16 -5 0
-10 -4 -10 -9z"/>
<path d="M8016 8288 c3 -5 10 -6 15 -3 13 9 11 12 -6 12 -8 0 -12 -4 -9 -9z"/>
<path d="M8310 8250 c0 -13 7 -20 20 -20 13 0 20 7 20 20 0 13 -7 20 -20 20
-13 0 -20 -7 -20 -20z"/>
<path d="M7010 8588 c-1 -5 -3 -11 -4 -15 -1 -5 -5 -14 -10 -21 -5 -8 -4 -18
3 -25 13 -13 24 12 18 45 -2 13 -5 20 -7 16z"/>
<path d="M7092 8508 c-32 -15 -45 -28 -49 -50 -4 -23 -8 -26 -19 -17 -9 7 -14
8 -14 1 0 -14 91 -44 136 -45 21 -1 39 5 45 13 20 31 -14 121 -45 120 -6 -1
-30 -10 -54 -22z"/>
<path d="M7000 8481 c0 -6 5 -13 10 -16 6 -3 10 1 10 9 0 9 -4 16 -10 16 -5 0
-10 -4 -10 -9z"/>
<path d="M6920 8370 c0 -5 5 -10 10 -10 6 0 10 5 10 10 0 6 -4 10 -10 10 -5 0
-10 -4 -10 -10z"/>
<path d="M7160 8360 c0 -5 5 -10 10 -10 6 0 10 5 10 10 0 6 -4 10 -10 10 -5 0
-10 -4 -10 -10z"/>
<path d="M6990 8350 c0 -5 9 -10 20 -10 11 0 20 5 20 10 0 6 -9 10 -20 10 -11
0 -20 -4 -20 -10z"/>
<path d="M7020 8310 c0 -5 5 -10 10 -10 6 0 10 5 10 10 0 6 -4 10 -10 10 -5 0
-10 -4 -10 -10z"/>
<path d="M7120 8270 c0 -5 5 -10 10 -10 6 0 10 5 10 10 0 6 -4 10 -10 10 -5 0
-10 -4 -10 -10z"/>
<path d="M7721 10294 c0 -11 3 -14 6 -6 3 7 2 16 -1 19 -3 4 -6 -2 -5 -13z"/>
<path d="M7806 10286 c3 -15 1 -25 -9 -29 -8 -3 -14 -17 -14 -31 l0 -26 33 34
c38 39 41 46 19 46 -8 0 -15 7 -15 15 0 8 -5 15 -10 15 -6 0 -8 -10 -4 -24z"/>
<path d="M5821 10286 c-12 -15 15 -116 31 -116 7 0 11 35 12 91 0 10 5 15 13
12 7 -3 13 1 13 9 0 19 -55 22 -69 4z"/>
<path d="M5950 10290 c0 -5 5 -10 10 -10 6 0 10 5 10 10 0 6 -4 10 -10 10 -5
0 -10 -4 -10 -10z"/>
<path d="M6132 10283 c-16 -31 -2 -46 18 -21 18 22 18 38 0 38 -5 0 -13 -8
-18 -17z"/>
<path d="M8201 10287 c-7 -9 -11 -26 -9 -39 4 -22 5 -22 17 6 14 35 10 54 -8
33z"/>
<path d="M6030 10280 c0 -6 12 -15 26 -20 37 -14 40 -12 16 10 -23 22 -42 26
-42 10z"/>
<path d="M7515 10269 c-4 -6 -5 -13 -2 -16 7 -7 27 6 27 18 0 12 -17 12 -25
-2z"/>
<path d="M7600 10266 c0 -8 5 -18 10 -21 6 -3 10 3 10 14 0 12 -4 21 -10 21
-5 0 -10 -6 -10 -14z"/>
<path d="M7980 10260 c0 -5 5 -10 11 -10 5 0 7 5 4 10 -3 6 -8 10 -11 10 -2 0
-4 -4 -4 -10z"/>
<path d="M8016 10254 c-4 -9 -4 -19 -1 -22 3 -3 11 0 17 6 9 9 9 15 1 23 -7 7
-12 5 -17 -7z"/>
<path d="M7326 10245 c-3 -8 -1 -15 4 -15 6 0 10 7 10 15 0 8 -2 15 -4 15 -2
0 -6 -7 -10 -15z"/>
<path d="M7200 10240 c0 -5 5 -10 10 -10 6 0 10 5 10 10 0 6 -4 10 -10 10 -5
0 -10 -4 -10 -10z"/>
<path d="M6102 10212 c-14 -31 -15 -42 -3 -42 9 0 26 58 19 65 -2 2 -9 -8 -16
-23z"/>
<path d="M7886 10214 c-4 -10 -1 -14 6 -12 15 5 23 28 10 28 -5 0 -13 -7 -16
-16z"/>
<path d="M8280 10220 c0 -5 5 -10 10 -10 6 0 10 5 10 10 0 6 -4 10 -10 10 -5
0 -10 -4 -10 -10z"/>
<path d="M7549 10207 c-23 -18 -31 -47 -14 -47 8 0 15 4 15 8 0 5 9 18 20 30
22 24 7 31 -21 9z"/>
<path d="M7664 10209 c-3 -6 -1 -16 5 -22 8 -8 11 -5 11 11 0 24 -5 28 -16 11z"/>
<path d="M8143 10193 c-16 -32 -17 -57 -3 -48 6 3 10 13 10 22 0 9 7 25 17 35
13 14 13 18 2 18 -8 0 -20 -12 -26 -27z"/>
<path d="M8101 10194 c0 -11 3 -14 6 -6 3 7 2 16 -1 19 -3 4 -6 -2 -5 -13z"/>
<path d="M7953 10189 c-13 -5 -23 -13 -23 -19 0 -14 11 -12 34 5 24 18 18 25
-11 14z"/>
<path d="M7600 10166 c0 -9 5 -16 10 -16 6 0 10 4 10 9 0 6 -4 13 -10 16 -5 3
-10 -1 -10 -9z"/>
<path d="M6112 10136 c2 -16 9 -31 16 -34 17 -5 15 20 -3 44 -15 18 -15 18
-13 -10z"/>
<path d="M7783 10135 c-3 -9 -3 -18 0 -21 9 -9 27 6 27 22 0 19 -19 18 -27 -1z"/>
<path d="M7563 10133 c-7 -3 -13 -14 -13 -26 0 -21 0 -21 16 1 17 25 16 32 -3
25z"/>
<path d="M7940 10131 c0 -18 18 -21 30 -6 10 13 9 15 -9 15 -11 0 -21 -4 -21
-9z"/>
<path d="M7870 10121 c0 -6 5 -13 10 -16 6 -3 10 1 10 9 0 9 -4 16 -10 16 -5
0 -10 -4 -10 -9z"/>
<path d="M7911 10102 c-9 -17 -7 -18 15 -14 14 2 23 9 21 15 -6 19 -25 19 -36
-1z"/>
<path d="M6450 10096 c0 -9 5 -16 10 -16 6 0 10 4 10 9 0 6 -4 13 -10 16 -5 3
-10 -1 -10 -9z"/>
<path d="M7437 10079 c-3 -13 -1 -19 6 -16 15 5 22 37 9 37 -5 0 -12 -9 -15
-21z"/>
<path d="M7988 10086 c-22 -16 -23 -26 -4 -26 7 0 16 9 19 20 3 11 4 20 4 20
-1 0 -10 -7 -19 -14z"/>
<path d="M6730 10075 c0 -8 2 -15 4 -15 2 0 6 7 10 15 3 8 1 15 -4 15 -6 0
-10 -7 -10 -15z"/>
<path d="M8070 10048 c0 -7 5 -20 10 -28 8 -12 10 -11 10 7 0 12 -4 25 -10 28
-5 3 -10 0 -10 -7z"/>
<path d="M6601 9994 c0 -11 3 -14 6 -6 3 7 2 16 -1 19 -3 4 -6 -2 -5 -13z"/>
<path d="M7310 9999 c0 -5 5 -7 10 -4 6 3 10 8 10 11 0 2 -4 4 -10 4 -5 0 -10
-5 -10 -11z"/>
<path d="M6276 9985 c-3 -8 -1 -15 4 -15 6 0 10 7 10 15 0 8 -2 15 -4 15 -2 0
-6 -7 -10 -15z"/>
<path d="M6355 9933 c17 -17 34 -28 38 -24 11 11 -3 41 -18 41 -7 0 -22 3 -32
7 -12 5 -8 -3 12 -24z"/>
<path d="M6494 9887 c-8 -21 2 -35 16 -21 5 5 6 15 0 24 -8 12 -10 12 -16 -3z"/>
<path d="M6570 9886 c0 -9 0 -19 -1 -23 0 -4 4 -9 10 -11 14 -5 14 35 1 43 -5
3 -10 -1 -10 -9z"/>
<path d="M6685 9870 c-3 -5 -1 -10 4 -10 6 0 11 5 11 10 0 6 -2 10 -4 10 -3 0
-8 -4 -11 -10z"/>
<path d="M9531 9514 c0 -11 3 -14 6 -6 3 7 2 16 -1 19 -3 4 -6 -2 -5 -13z"/>
<path d="M9587 9428 c-10 -17 -16 -33 -13 -35 7 -7 38 45 34 56 -1 6 -11 -3
-21 -21z"/>
<path d="M9640 9425 c0 -8 7 -15 15 -15 8 0 15 4 15 9 0 5 -7 11 -15 15 -9 3
-15 0 -15 -9z"/>
<path d="M9687 9433 c-2 -5 -7 -21 -11 -38 -6 -28 -5 -29 9 -11 8 11 15 28 15
38 0 19 -6 23 -13 11z"/>
<path d="M9350 9402 c0 -5 7 -15 15 -22 8 -7 15 -8 15 -2 0 5 -7 15 -15 22 -8
7 -15 8 -15 2z"/>
<path d="M9305 9330 c-3 -5 -1 -10 4 -10 6 0 11 5 11 10 0 6 -2 10 -4 10 -3 0
-8 -4 -11 -10z"/>
<path d="M9370 9279 c0 -5 5 -7 10 -4 6 3 10 8 10 11 0 2 -4 4 -10 4 -5 0 -10
-5 -10 -11z"/>
<path d="M9690 9250 c0 -5 5 -10 11 -10 5 0 7 5 4 10 -3 6 -8 10 -11 10 -2 0
-4 -4 -4 -10z"/>
<path d="M9341 9234 c0 -11 3 -14 6 -6 3 7 2 16 -1 19 -3 4 -6 -2 -5 -13z"/>
<path d="M9290 9189 c0 -5 5 -7 10 -4 6 3 10 8 10 11 0 2 -4 4 -10 4 -5 0 -10
-5 -10 -11z"/>
<path d="M9659 9123 c-21 -42 -22 -50 -4 -28 9 11 21 20 28 20 6 0 13 8 15 18
5 27 -23 20 -39 -10z"/>
<path d="M9357 9123 c-5 -7 -6 -17 -2 -22 3 -5 1 -12 -5 -16 -5 -3 -10 -11
-10 -16 0 -6 7 -3 16 5 8 9 14 26 12 38 -2 16 -5 19 -11 11z"/>
<path d="M9400 9100 c-16 -16 -19 -24 -10 -35 6 -8 18 -11 26 -8 9 3 14 -1 14
-12 0 -10 7 -23 14 -29 21 -15 24 -40 6 -41 -16 0 -26 -46 -15 -73 5 -13 10
-8 22 21 8 20 19 37 23 37 4 0 8 17 7 37 -1 44 -32 86 -58 78 -24 -8 -33 12
-12 24 10 5 15 12 11 16 -3 4 -16 -3 -28 -15z"/>
<path d="M9455 9100 c3 -5 11 -10 16 -10 6 0 7 5 4 10 -3 6 -11 10 -16 10 -6
0 -7 -4 -4 -10z"/>
<path d="M9562 9083 c2 -9 11 -17 20 -19 14 -2 15 1 5 17 -15 23 -30 25 -25 2z"/>
<path d="M9300 8980 c6 -12 18 -24 25 -26 8 -3 17 -15 20 -25 5 -16 10 -18 21
-8 20 16 18 26 -7 32 -15 4 -20 12 -17 24 4 15 -1 19 -24 21 -26 2 -28 1 -18
-18z"/>
<path d="M9304 8902 c2 -4 1 -14 -3 -21 -6 -8 -1 -21 11 -33 16 -16 22 -18 29
-7 5 8 2 20 -7 30 -7 8 -14 21 -14 27 0 7 -5 12 -11 12 -5 0 -8 -4 -5 -8z"/>
<path d="M9630 8486 c0 -8 5 -18 10 -21 6 -3 10 3 10 14 0 12 -4 21 -10 21 -5
0 -10 -6 -10 -14z"/>
<path d="M9680 8445 c0 -8 5 -15 10 -15 6 0 10 7 10 15 0 8 -4 15 -10 15 -5 0
-10 -7 -10 -15z"/>
<path d="M9367 8406 c-4 -10 0 -12 14 -9 10 3 16 9 13 14 -8 13 -21 11 -27 -5z"/>
<path d="M9561 8394 c0 -11 3 -14 6 -6 3 7 2 16 -1 19 -3 4 -6 -2 -5 -13z"/>
<path d="M9390 8353 c0 -13 5 -23 10 -23 13 0 13 11 0 30 -8 12 -10 11 -10 -7z"/>
<path d="M9585 8327 c-4 -10 -5 -21 -1 -24 10 -10 18 4 13 24 -4 17 -4 17 -12
0z"/>
<path d="M9400 8298 c0 -31 15 -52 30 -43 8 5 9 10 1 18 -6 6 -11 19 -11 29 0
10 -4 18 -10 18 -5 0 -10 -10 -10 -22z"/>
<path d="M9691 8244 c0 -11 3 -14 6 -6 3 7 2 16 -1 19 -3 4 -6 -2 -5 -13z"/>
<path d="M9360 8165 c0 -19 5 -35 11 -35 5 0 8 4 5 9 -4 5 -2 21 4 35 7 21 6
26 -5 26 -10 0 -15 -11 -15 -35z"/>
<path d="M9490 8167 c-9 -7 -14 -20 -12 -30 2 -10 -2 -24 -8 -32 -10 -13 -8
-15 14 -15 14 0 26 5 26 10 0 7 7 7 20 0 12 -6 40 -10 64 -8 41 3 43 4 35 27
-8 20 -11 22 -26 10 -15 -12 -16 -12 -10 4 3 9 2 17 -3 17 -6 0 -10 -9 -10
-21 0 -17 -5 -20 -40 -16 -49 4 -55 10 -40 37 14 26 10 32 -10 17z"/>
<path d="M9645 8159 c-4 -13 -1 -25 8 -32 8 -7 17 -19 20 -27 3 -8 6 -3 6 13
1 15 -4 27 -11 27 -7 0 -5 5 5 11 23 13 22 29 -2 29 -11 0 -23 -9 -26 -21z"/>
<path d="M9430 8135 c0 -8 5 -15 10 -15 6 0 10 7 10 15 0 8 -4 15 -10 15 -5 0
-10 -7 -10 -15z"/>
<path d="M7350 7058 c-38 -10 -91 -47 -128 -88 -38 -42 -100 -180 -131 -290
-70 -247 -86 -382 -101 -858 -5 -169 -12 -343 -15 -387 -2 -44 -7 -122 -10
-174 l-6 -94 41 6 c73 9 141 52 234 144 157 157 237 300 295 528 83 329 101
429 101 549 0 256 -75 553 -164 649 -27 29 -55 33 -116 15z"/>
<path d="M8580 7058 c-38 -10 -91 -47 -128 -88 -38 -42 -100 -180 -131 -290
-70 -247 -86 -382 -101 -858 -5 -169 -12 -343 -15 -387 -2 -44 -7 -122 -10
-174 l-6 -94 41 6 c73 9 141 52 234 144 157 157 237 300 295 528 83 329 101
429 101 549 0 256 -75 553 -164 649 -27 29 -55 33 -116 15z"/>
<path d="M5849 6166 c-182 -65 -337 -332 -368 -631 -10 -100 -1 -318 20 -470
39 -285 134 -575 210 -639 128 -108 309 129 414 543 61 241 102 588 90 756
-21 282 -129 455 -285 454 -25 0 -61 -6 -81 -13z"/>
<path d="M9613 3566 c-59 -54 -146 -186 -159 -240 -7 -29 -7 -29 32 -22 56 10
174 68 219 107 41 36 74 98 75 140 0 37 -34 69 -75 69 -27 0 -45 -11 -92 -54z"/>
<path d="M7039 3156 c-43 -29 -90 -97 -121 -175 -20 -50 -23 -73 -23 -211 0
-162 15 -260 57 -385 23 -71 62 -125 88 -125 102 0 221 342 222 640 1 127 -17
193 -67 245 -27 30 -39 35 -76 35 -31 0 -56 -8 -80 -24z"/>
</g>
</svg>
