<svg xmlns="http://www.w3.org/2000/svg" xmlns:xlink="http://www.w3.org/1999/xlink" width="40" zoomAndPan="magnify" viewBox="0 0 30 30.000001" height="40" preserveAspectRatio="xMidYMid meet" version="1.0"><defs><clipPath id="id1"><path d="M 9.195312 8.710938 L 20.804688 8.710938 L 20.804688 20.324219 L 9.195312 20.324219 Z M 9.195312 8.710938 " clip-rule="nonzero"/></clipPath><clipPath id="id2"><path d="M 0.484375 3 L 29.515625 3 L 29.515625 26.378906 L 0.484375 26.378906 Z M 0.484375 3 " clip-rule="nonzero"/></clipPath></defs><path fill="#ffffff" d="M 15 13.230469 C 14.292969 13.230469 13.714844 13.808594 13.714844 14.515625 C 13.714844 15.226562 14.292969 15.804688 15 15.804688 C 15.707031 15.804688 16.285156 15.226562 16.285156 14.515625 C 16.285156 13.808594 15.707031 13.230469 15 13.230469 Z M 15 13.230469 " fill-opacity="1" fill-rule="nonzero"/><path fill="#ffffff" d="M 16.730469 11.359375 L 13.269531 11.359375 C 12.488281 11.359375 11.84375 11.996094 11.84375 12.785156 L 11.84375 16.246094 C 11.84375 17.03125 12.480469 17.671875 13.269531 17.671875 L 16.730469 17.671875 C 17.511719 17.671875 18.15625 17.035156 18.15625 16.246094 L 18.15625 12.785156 C 18.152344 11.996094 17.511719 11.359375 16.730469 11.359375 Z M 15 16.453125 C 13.929688 16.453125 13.058594 15.582031 13.058594 14.511719 C 13.058594 13.441406 13.929688 12.570312 15 12.570312 C 16.070312 12.570312 16.941406 13.441406 16.941406 14.511719 C 16.933594 15.582031 16.066406 16.453125 15 16.453125 Z M 17.078125 12.898438 C 16.820312 12.898438 16.609375 12.6875 16.609375 12.429688 C 16.609375 12.171875 16.820312 11.960938 17.078125 11.960938 C 17.332031 11.960938 17.542969 12.171875 17.542969 12.429688 C 17.542969 12.691406 17.335938 12.898438 17.078125 12.898438 Z M 17.078125 12.898438 " fill-opacity="1" fill-rule="nonzero"/><g clip-path="url(#id1)"><path fill="#ffffff" d="M 15 8.710938 C 11.792969 8.710938 9.195312 11.308594 9.195312 14.515625 C 9.195312 17.722656 11.792969 20.324219 15 20.324219 C 18.207031 20.324219 20.804688 17.722656 20.804688 14.515625 C 20.800781 11.308594 18.203125 8.710938 15 8.710938 Z M 18.804688 16.246094 C 18.804688 17.390625 17.871094 18.328125 16.722656 18.328125 L 13.269531 18.328125 C 12.125 18.328125 11.1875 17.390625 11.1875 16.246094 L 11.1875 12.785156 C 11.1875 11.640625 12.125 10.707031 13.269531 10.707031 L 16.730469 10.707031 C 17.875 10.707031 18.8125 11.640625 18.8125 12.785156 L 18.8125 16.246094 Z M 18.804688 16.246094 " fill-opacity="1" fill-rule="nonzero"/></g><g clip-path="url(#id2)"><path fill="#000000" d="M 26.515625 8.863281 C 26.53125 9.117188 26.53125 9.371094 26.53125 9.625 C 26.53125 17.40625 20.554688 26.378906 9.628906 26.378906 L 9.628906 26.375 C 6.398438 26.378906 3.238281 25.460938 0.523438 23.734375 C 0.992188 23.789062 1.460938 23.816406 1.9375 23.820312 C 4.609375 23.820312 7.210938 22.933594 9.3125 21.292969 C 6.773438 21.246094 4.542969 19.605469 3.765625 17.203125 C 4.65625 17.375 5.570312 17.339844 6.445312 17.101562 C 3.675781 16.546875 1.679688 14.136719 1.679688 11.332031 C 1.679688 11.304688 1.679688 11.28125 1.679688 11.257812 C 2.503906 11.714844 3.429688 11.964844 4.375 11.996094 C 1.765625 10.265625 0.960938 6.824219 2.539062 4.132812 C 5.554688 7.8125 10.003906 10.046875 14.78125 10.285156 C 14.300781 8.238281 14.957031 6.097656 16.5 4.660156 C 18.894531 2.429688 22.65625 2.542969 24.90625 4.914062 C 26.234375 4.65625 27.511719 4.171875 28.679688 3.484375 C 28.234375 4.847656 27.308594 6.007812 26.066406 6.742188 C 27.246094 6.605469 28.394531 6.292969 29.480469 5.816406 C 28.679688 7 27.675781 8.03125 26.515625 8.863281 Z M 26.515625 8.863281 " fill-opacity="1" fill-rule="nonzero"/></g></svg>