<svg xmlns="http://www.w3.org/2000/svg" xmlns:xlink="http://www.w3.org/1999/xlink" width="40" zoomAndPan="magnify" viewBox="0 0 30 30.000001" height="40" preserveAspectRatio="xMidYMid meet" version="1.0"><defs><clipPath id="id1"><path d="M 0.484375 0 L 29.078125 0 L 29.078125 29.03125 L 0.484375 29.03125 Z M 0.484375 0 " clip-rule="nonzero"/></clipPath><clipPath id="id2"><path d="M 8 3 L 29.078125 3 L 29.078125 29.03125 L 8 29.03125 Z M 8 3 " clip-rule="nonzero"/></clipPath><clipPath id="id3"><path d="M 3 18 L 26 18 L 26 29.03125 L 3 29.03125 Z M 3 18 " clip-rule="nonzero"/></clipPath></defs><g clip-path="url(#id1)"><path fill="#aad8f4" d="M 29.082031 14.523438 C 29.082031 18.128906 27.765625 21.433594 25.585938 23.972656 C 24.886719 24.789062 24.09375 25.527344 23.226562 26.171875 C 20.808594 27.972656 17.8125 29.039062 14.566406 29.039062 C 12.492188 29.039062 10.523438 28.605469 8.738281 27.820312 C 7.726562 27.378906 6.777344 26.824219 5.902344 26.171875 C 5.039062 25.527344 4.25 24.789062 3.546875 23.972656 C 1.367188 21.433594 0.0507812 18.128906 0.0507812 14.523438 C 0.0507812 6.503906 6.550781 0.00390625 14.566406 0.00390625 C 20.070312 0.00390625 24.855469 3.066406 27.320312 7.578125 C 28.445312 9.640625 29.082031 12.007812 29.082031 14.523438 Z M 29.082031 14.523438 " fill-opacity="1" fill-rule="nonzero"/></g><g clip-path="url(#id2)"><path fill="#5ec1ed" d="M 29.082031 14.523438 C 29.082031 18.128906 27.765625 21.433594 25.585938 23.972656 C 24.886719 24.789062 24.09375 25.527344 23.226562 26.171875 C 20.808594 27.972656 17.8125 29.039062 14.566406 29.039062 C 12.492188 29.039062 10.523438 28.605469 8.738281 27.820312 L 15.25 5.746094 L 14.546875 3.988281 L 18.089844 4.328125 L 27.320312 7.578125 C 28.445312 9.640625 29.082031 12.007812 29.082031 14.523438 Z M 29.082031 14.523438 " fill-opacity="1" fill-rule="nonzero"/></g><path fill="#fbcb98" d="M 9.683594 9.832031 C 9.539062 9.671875 9.316406 9.597656 9.191406 9.816406 C 9.011719 10.125 9.03125 10.546875 9.058594 10.890625 C 9.078125 11.167969 9.113281 11.449219 9.1875 11.722656 C 9.25 11.957031 9.335938 12.277344 9.542969 12.425781 C 9.59375 12.457031 9.65625 12.492188 9.71875 12.503906 C 9.75 12.507812 9.949219 12.511719 9.882812 12.425781 " fill-opacity="1" fill-rule="nonzero"/><path fill="#fbcb98" d="M 19.433594 9.832031 C 19.578125 9.671875 19.800781 9.597656 19.925781 9.816406 C 20.105469 10.125 20.085938 10.546875 20.058594 10.890625 C 20.039062 11.167969 20.003906 11.449219 19.929688 11.722656 C 19.867188 11.957031 19.78125 12.277344 19.574219 12.425781 C 19.523438 12.457031 19.460938 12.492188 19.398438 12.503906 C 19.367188 12.507812 19.167969 12.511719 19.234375 12.425781 " fill-opacity="1" fill-rule="nonzero"/><path fill="#fbcb98" d="M 25.585938 23.972656 C 24.886719 24.789062 24.09375 25.527344 23.226562 26.171875 L 5.902344 26.171875 C 5.039062 25.527344 4.246094 24.789062 3.546875 23.972656 C 4.203125 22.296875 5.597656 20.957031 7.398438 20.410156 L 10.390625 19.261719 C 11.546875 18.878906 11.492188 18.242188 11.492188 17.023438 L 11.492188 14.433594 L 17.636719 14.433594 L 17.636719 17.019531 C 17.636719 18.238281 17.699219 18.964844 18.859375 19.34375 L 21.742188 20.40625 C 23.539062 20.957031 24.933594 22.292969 25.585938 23.972656 Z M 25.585938 23.972656 " fill-opacity="1" fill-rule="nonzero"/><g clip-path="url(#id3)"><path fill="#092838" d="M 25.585938 23.972656 C 22.925781 27.074219 18.976562 29.039062 14.566406 29.039062 C 10.160156 29.039062 6.210938 27.074219 3.546875 23.972656 C 4.207031 22.296875 5.597656 20.957031 7.398438 20.410156 L 10.390625 19.261719 C 10.726562 19.148438 10.960938 19.015625 11.125 18.851562 C 11.136719 18.863281 11.148438 18.875 11.160156 18.886719 C 13.078125 20.679688 16.023438 20.808594 18.074219 19.167969 C 18.140625 19.113281 18.199219 19.074219 18.25 19.042969 C 18.40625 19.160156 18.605469 19.257812 18.859375 19.34375 L 21.742188 20.40625 C 23.539062 20.957031 24.933594 22.292969 25.585938 23.972656 Z M 25.585938 23.972656 " fill-opacity="1" fill-rule="nonzero"/></g><path fill="#fbcb98" d="M 19.457031 9.300781 C 19.445312 5.832031 17.292969 3.988281 14.546875 3.988281 C 14.546875 3.988281 14.339844 3.761719 14.335938 3.761719 C 11.59375 3.761719 9.695312 5.832031 9.683594 9.304688 C 9.679688 10.886719 9.734375 11.925781 9.894531 13.074219 C 10.394531 16.644531 13.679688 17.644531 14.566406 17.644531 C 15.652344 17.644531 18.75 16.644531 19.25 13.074219 C 19.410156 11.925781 19.464844 10.882812 19.457031 9.300781 Z M 19.457031 9.300781 " fill-opacity="1" fill-rule="nonzero"/><path fill="#8e4a33" d="M 10.132812 10.394531 C 10.304688 9.371094 10.621094 8.371094 10.902344 7.367188 C 11.109375 6.628906 11.488281 5.746094 12.25 5.695312 C 13.058594 5.644531 13.640625 6.605469 14.445312 6.621094 C 14.980469 6.628906 15.417969 6.230469 15.84375 5.90625 C 16.269531 5.585938 16.863281 5.324219 17.3125 5.609375 C 17.65625 5.832031 17.691406 6.179688 17.796875 6.527344 C 17.960938 7.054688 18.175781 7.566406 18.378906 8.082031 C 18.816406 9.171875 19.253906 10.28125 19.355469 11.453125 C 19.6875 10.015625 19.730469 8.515625 19.480469 7.066406 C 19.144531 5.109375 18.042969 3.765625 16.058594 3.328125 C 15.1875 3.136719 14.285156 3.058594 13.410156 2.886719 C 13.625 3.144531 13.664062 3.492188 13.726562 3.816406 C 13.324219 3.886719 12.871094 3.71875 12.449219 3.746094 C 11.925781 3.777344 11.40625 3.929688 10.953125 4.199219 C 10.195312 4.648438 9.628906 5.417969 9.421875 6.277344 C 9.316406 6.71875 9.304688 7.175781 9.308594 7.628906 C 9.324219 8.847656 9.644531 9.980469 9.710938 11.175781 C 9.722656 11.378906 9.710938 11.550781 9.691406 11.746094 C 9.675781 11.902344 9.699219 12.105469 9.75 12.253906 C 9.6875 12.074219 10.070312 10.789062 10.125 10.457031 C 10.125 10.4375 10.128906 10.414062 10.132812 10.394531 Z M 10.132812 10.394531 " fill-opacity="1" fill-rule="nonzero"/><path fill="#9f533a" d="M 16.613281 13.167969 C 16.054688 12.933594 15.660156 12.492188 15.140625 12.199219 C 14.542969 11.863281 13.953125 12.113281 13.417969 12.453125 C 12.875 12.792969 12.335938 13.144531 11.667969 13.148438 C 11.035156 13.152344 10.441406 12.875 9.984375 12.449219 C 9.90625 12.378906 9.835938 12.304688 9.765625 12.230469 C 9.796875 12.539062 9.832031 12.847656 9.875 13.160156 C 10.375 16.730469 13.660156 17.730469 14.546875 17.730469 C 15.632812 17.730469 18.730469 16.730469 19.230469 13.160156 C 19.25 13.015625 19.421875 12.183594 19.4375 12.039062 C 18.703125 12.675781 17.566406 13.5625 16.613281 13.167969 Z M 15.210938 15.113281 C 15.210938 15.113281 15.109375 14.886719 14.984375 14.886719 L 14.300781 14.886719 C 14.175781 14.886719 14.074219 14.984375 14.074219 15.113281 L 13.980469 15.617188 C 13.980469 15.761719 13.839844 15.863281 13.703125 15.820312 C 13.230469 15.675781 12.730469 15.386719 12.230469 14.886719 C 12.230469 14.886719 12.988281 14.335938 13.660156 13.917969 C 14.238281 13.5625 14.964844 13.585938 15.542969 13.9375 C 15.890625 14.152344 16.273438 14.433594 16.925781 14.886719 C 16.925781 14.886719 16.308594 15.511719 15.390625 15.796875 C 15.253906 15.84375 15.210938 15.257812 15.210938 15.113281 Z M 15.210938 15.113281 " fill-opacity="1" fill-rule="nonzero"/></svg>