<svg xmlns="http://www.w3.org/2000/svg" xmlns:xlink="http://www.w3.org/1999/xlink" width="40" zoomAndPan="magnify" viewBox="0 0 30 30.000001" height="40" preserveAspectRatio="xMidYMid meet" version="1.0"><defs><clipPath id="id1"><path d="M 0.484375 0 L 29.515625 0 L 29.515625 29.03125 L 0.484375 29.03125 Z M 0.484375 0 " clip-rule="nonzero"/></clipPath><clipPath id="id2"><path d="M 9 3 L 29.515625 3 L 29.515625 29.03125 L 9 29.03125 Z M 9 3 " clip-rule="nonzero"/></clipPath><clipPath id="id3"><path d="M 3 18 L 27 18 L 27 29.03125 L 3 29.03125 Z M 3 18 " clip-rule="nonzero"/></clipPath></defs><g clip-path="url(#id1)"><path fill="#ffdd3c" d="M 29.523438 14.523438 C 29.523438 18.128906 28.203125 21.433594 26.027344 23.972656 C 25.324219 24.789062 24.53125 25.527344 23.667969 26.171875 C 21.25 27.972656 18.253906 29.039062 15.007812 29.039062 C 12.933594 29.039062 10.960938 28.605469 9.175781 27.820312 C 8.164062 27.378906 7.214844 26.824219 6.34375 26.171875 C 5.480469 25.527344 4.6875 24.789062 3.984375 23.972656 C 1.808594 21.433594 0.488281 18.128906 0.488281 14.523438 C 0.488281 6.503906 6.988281 0.00390625 15.007812 0.00390625 C 20.507812 0.00390625 25.296875 3.066406 27.757812 7.578125 C 28.882812 9.640625 29.523438 12.007812 29.523438 14.523438 Z M 29.523438 14.523438 " fill-opacity="1" fill-rule="nonzero"/></g><g clip-path="url(#id2)"><path fill="#fcc33d" d="M 29.523438 14.523438 C 29.523438 18.128906 28.203125 21.433594 26.027344 23.972656 C 25.324219 24.789062 24.53125 25.527344 23.667969 26.171875 C 21.25 27.972656 18.253906 29.039062 15.007812 29.039062 C 12.933594 29.039062 10.960938 28.605469 9.175781 27.820312 L 15.6875 5.746094 L 16.996094 3.988281 L 19.398438 3.441406 L 27.757812 7.578125 C 28.882812 9.640625 29.523438 12.007812 29.523438 14.523438 Z M 29.523438 14.523438 " fill-opacity="1" fill-rule="nonzero"/></g><path fill="#fbcb98" d="M 10.125 9.832031 C 9.980469 9.671875 9.757812 9.597656 9.632812 9.816406 C 9.453125 10.125 9.46875 10.546875 9.496094 10.890625 C 9.519531 11.167969 9.550781 11.449219 9.625 11.722656 C 9.6875 11.957031 9.773438 12.277344 9.984375 12.425781 C 10.03125 12.457031 10.097656 12.492188 10.15625 12.503906 C 10.1875 12.507812 10.390625 12.511719 10.320312 12.425781 " fill-opacity="1" fill-rule="nonzero"/><path fill="#fbcb98" d="M 19.871094 9.832031 C 20.015625 9.671875 20.238281 9.597656 20.363281 9.816406 C 20.542969 10.125 20.523438 10.546875 20.5 10.890625 C 20.476562 11.167969 20.445312 11.449219 20.371094 11.722656 C 20.308594 11.957031 20.222656 12.277344 20.011719 12.425781 C 19.964844 12.457031 19.898438 12.492188 19.839844 12.503906 C 19.804688 12.507812 19.605469 12.511719 19.675781 12.425781 " fill-opacity="1" fill-rule="nonzero"/><path fill="#eabf8f" d="M 26.027344 23.972656 C 25.324219 24.789062 24.53125 25.527344 23.667969 26.171875 L 6.34375 26.171875 C 5.476562 25.527344 4.6875 24.789062 3.984375 23.972656 C 4.644531 22.296875 6.039062 20.957031 7.835938 20.410156 L 10.828125 19.261719 C 11.984375 18.878906 11.933594 18.242188 11.933594 17.023438 L 11.933594 14.433594 L 18.078125 14.433594 L 18.078125 17.019531 C 18.078125 18.238281 18.140625 18.964844 19.296875 19.34375 L 22.179688 20.40625 C 23.976562 20.957031 25.371094 22.292969 26.027344 23.972656 Z M 26.027344 23.972656 " fill-opacity="1" fill-rule="nonzero"/><g clip-path="url(#id3)"><path fill="#ffffff" d="M 26.027344 23.972656 C 23.363281 27.074219 19.414062 29.039062 15.007812 29.039062 C 10.597656 29.039062 6.648438 27.074219 3.988281 23.972656 C 4.644531 22.296875 6.039062 20.957031 7.835938 20.410156 L 10.832031 19.261719 C 11.167969 19.148438 11.402344 19.015625 11.5625 18.851562 C 12.742188 19.9375 14.527344 20.140625 16.085938 19.921875 C 16.964844 19.796875 17.898438 19.515625 18.6875 19.042969 C 18.847656 19.160156 19.046875 19.257812 19.296875 19.34375 L 22.179688 20.40625 C 23.976562 20.957031 25.371094 22.292969 26.027344 23.972656 Z M 26.027344 23.972656 " fill-opacity="1" fill-rule="nonzero"/></g><path fill="#092838" d="M 11.5 18.910156 C 11.34375 19.046875 11.125 19.164062 10.832031 19.261719 L 7.835938 20.410156 C 6.039062 20.957031 4.644531 22.296875 3.988281 23.972656 C 5.917969 26.222656 8.53125 27.875 11.5 28.613281 Z M 11.5 18.910156 " fill-opacity="1" fill-rule="nonzero"/><path fill="#092838" d="M 22.179688 20.40625 L 19.296875 19.34375 C 19.136719 19.289062 19.003906 19.230469 18.882812 19.164062 L 18.882812 28.515625 C 21.699219 27.738281 24.175781 26.128906 26.027344 23.972656 C 25.371094 22.292969 23.976562 20.957031 22.179688 20.40625 Z M 22.179688 20.40625 " fill-opacity="1" fill-rule="nonzero"/><path fill="#fbcb98" d="M 19.898438 9.300781 C 19.882812 5.832031 17.761719 3.339844 15.015625 3.339844 C 15.015625 3.339844 15.011719 3.339844 15.011719 3.339844 C 15.011719 3.339844 15.007812 3.339844 15.007812 3.339844 C 12.261719 3.339844 10.136719 5.832031 10.125 9.300781 C 10.121094 10.882812 10.175781 11.925781 10.335938 13.074219 C 10.835938 16.644531 14.121094 17.644531 15.007812 17.644531 C 16.09375 17.644531 19.1875 16.644531 19.6875 13.074219 C 19.847656 11.925781 19.902344 10.882812 19.898438 9.300781 Z M 19.898438 9.300781 " fill-opacity="1" fill-rule="nonzero"/><path fill="#441d00" d="M 18.867188 13.265625 C 18.320312 13.851562 17.519531 14.042969 16.789062 13.667969 C 16.503906 13.519531 16.261719 13.300781 15.976562 13.152344 C 15.457031 12.882812 14.820312 12.882812 14.28125 13.101562 C 13.953125 13.234375 13.660156 13.441406 13.34375 13.59375 C 12.945312 13.785156 12.304688 13.902344 11.878906 13.738281 C 11.460938 13.574219 11.195312 13.140625 11.003906 12.761719 C 10.546875 11.851562 10.261719 10.90625 10.125 9.9375 C 10.136719 11.175781 10.195312 12.085938 10.332031 13.074219 C 10.832031 16.644531 14.117188 17.644531 15.003906 17.644531 C 16.09375 17.644531 19.1875 16.644531 19.6875 13.074219 C 19.761719 12.542969 19.863281 11.441406 19.898438 10.890625 C 19.710938 11.476562 19.328125 12.769531 18.867188 13.265625 Z M 16.371094 15.679688 C 16.316406 15.695312 16.261719 15.707031 16.203125 15.707031 C 15.71875 15.71875 15.484375 14.917969 14.980469 15.125 C 14.460938 15.339844 14.171875 16.160156 13.492188 15.410156 C 12.863281 14.722656 13.804688 14.179688 14.226562 13.953125 C 15.09375 13.492188 16.226562 13.75 16.875 14.523438 C 17.199219 14.90625 16.816406 15.535156 16.371094 15.679688 Z M 16.371094 15.679688 " fill-opacity="1" fill-rule="nonzero"/><path fill="#441d00" d="M 19.898438 9.300781 C 19.890625 7.75 19.460938 6.394531 18.746094 5.371094 C 18.574219 5.757812 18.402344 6.144531 18.21875 6.527344 C 18.117188 6.746094 18.234375 7.296875 18.25 7.535156 C 18.273438 7.910156 18.320312 8.28125 18.425781 8.640625 C 18.578125 9.179688 18.660156 9.816406 19.058594 10.242188 C 19.144531 10.332031 19.253906 10.402344 19.34375 10.492188 C 19.464844 10.613281 19.550781 10.773438 19.585938 10.945312 C 19.628906 11.175781 19.597656 11.453125 19.777344 11.601562 C 20.042969 10.902344 19.898438 10.042969 19.898438 9.300781 Z M 19.898438 9.300781 " fill-opacity="1" fill-rule="nonzero"/><path fill="#441d00" d="M 10.828125 10.488281 C 10.941406 10.355469 11.0625 10.230469 11.1875 10.117188 C 11.460938 9.863281 11.691406 9.601562 11.789062 9.234375 C 11.894531 8.832031 11.863281 8.402344 11.980469 8 C 12.023438 7.859375 12.082031 7.722656 12.183594 7.617188 C 12.386719 7.402344 12.71875 7.359375 13.003906 7.421875 C 13.292969 7.484375 13.550781 7.632812 13.816406 7.761719 C 15.121094 8.390625 16.730469 8.480469 18.007812 7.789062 C 18.804688 7.355469 19.496094 6.628906 20.398438 6.550781 C 20.558594 6.539062 20.742188 6.554688 20.839844 6.679688 C 20.507812 5.980469 19.765625 5.496094 18.992188 5.480469 C 19.023438 5.257812 19.257812 5.132812 19.464844 5.050781 C 20.011719 4.839844 20.585938 4.695312 21.167969 4.628906 C 20.414062 4.074219 19.398438 3.882812 18.496094 4.132812 C 18.628906 3.761719 19.03125 3.582031 19.394531 3.4375 C 18.828125 2.890625 17.988281 2.734375 17.199219 2.707031 C 15.609375 2.65625 14.011719 3.054688 12.632812 3.84375 C 12.488281 3.925781 12.347656 4.011719 12.183594 4.039062 C 12.023438 4.066406 11.835938 4.019531 11.75 3.882812 C 11.628906 3.699219 11.730469 3.453125 11.835938 3.257812 C 10.597656 3.703125 10.273438 5.21875 10.132812 6.367188 C 9.898438 8.242188 10.0625 10.140625 10.230469 12.023438 C 10.179688 11.445312 10.460938 10.917969 10.828125 10.488281 Z M 10.828125 10.488281 " fill-opacity="1" fill-rule="nonzero"/></svg>