<svg xmlns="http://www.w3.org/2000/svg" xmlns:xlink="http://www.w3.org/1999/xlink" width="40" zoomAndPan="magnify" viewBox="0 0 30 30.000001" height="40" preserveAspectRatio="xMidYMid meet" version="1.0"><defs><clipPath id="id1"><path d="M 0.484375 0 L 29.515625 0 L 29.515625 29.03125 L 0.484375 29.03125 Z M 0.484375 0 " clip-rule="nonzero"/></clipPath><clipPath id="id2"><path d="M 13 4 L 29.515625 4 L 29.515625 29.03125 L 13 29.03125 Z M 13 4 " clip-rule="nonzero"/></clipPath><clipPath id="id3"><path d="M 4 15 L 26 15 L 26 29.03125 L 4 29.03125 Z M 4 15 " clip-rule="nonzero"/></clipPath><clipPath id="id4"><path d="M 4 19 L 26 19 L 26 29.03125 L 4 29.03125 Z M 4 19 " clip-rule="nonzero"/></clipPath></defs><g clip-path="url(#id1)"><path fill="#aad8f4" d="M 29.402344 14.523438 C 29.402344 18.128906 28.089844 21.433594 25.921875 23.972656 C 25.726562 24.199219 25.523438 24.425781 25.3125 24.640625 C 24.777344 25.195312 24.195312 25.710938 23.574219 26.171875 C 21.171875 27.972656 18.191406 29.039062 14.964844 29.039062 C 14.917969 29.039062 14.875 29.039062 14.832031 29.039062 C 12.816406 29.019531 10.902344 28.585938 9.164062 27.820312 C 8.160156 27.378906 7.214844 26.824219 6.347656 26.171875 C 5.71875 25.699219 5.128906 25.179688 4.582031 24.613281 C 4.382812 24.40625 4.191406 24.191406 4.003906 23.972656 C 1.835938 21.433594 0.523438 18.128906 0.523438 14.523438 C 0.523438 6.503906 6.988281 0.00390625 14.964844 0.00390625 C 20.433594 0.00390625 25.195312 3.066406 27.644531 7.578125 C 28.457031 9.074219 29.015625 10.730469 29.261719 12.488281 C 29.351562 13.152344 29.402344 13.832031 29.402344 14.523438 Z M 29.402344 14.523438 " fill-opacity="1" fill-rule="nonzero"/></g><g clip-path="url(#id2)"><path fill="#5ec1ed" d="M 29.464844 14.523438 C 29.464844 18.128906 28.152344 21.433594 25.988281 23.972656 C 25.792969 24.199219 25.585938 24.425781 25.375 24.640625 C 24.839844 25.195312 24.257812 25.710938 23.640625 26.171875 C 21.234375 27.972656 18.253906 29.039062 15.027344 29.039062 C 14.984375 29.039062 14.941406 29.039062 14.894531 29.039062 L 13.148438 25.917969 L 18.4375 4.386719 L 29.324219 12.488281 C 29.417969 13.152344 29.464844 13.832031 29.464844 14.523438 Z M 29.464844 14.523438 " fill-opacity="1" fill-rule="nonzero"/></g><path fill="#092838" d="M 8.253906 8.351562 C 8.449219 7.84375 8.730469 7.367188 9.074219 6.949219 C 9.800781 6.066406 11.753906 4.269531 13.015625 4.527344 C 14.796875 4.898438 16.300781 7.890625 16.691406 9.492188 C 17.101562 11.179688 17.074219 12.945312 17.039062 14.683594 C 16.980469 17.828125 16.917969 21.011719 16.082031 24.042969 C 15.914062 24.65625 15.703125 25.285156 15.28125 25.765625 C 14.648438 26.484375 13.652344 26.75 12.710938 26.917969 C 10.699219 27.265625 8.46875 26.777344 6.582031 26.003906 C 5.933594 25.738281 5.28125 25.398438 4.871094 24.828125 C 4.394531 24.164062 4.347656 23.164062 4.746094 22.453125 C 5.257812 21.542969 6.046875 21.671875 6.855469 21.148438 C 7.371094 20.820312 7.726562 20.0625 7.328125 19.601562 C 7.121094 19.363281 6.792969 19.292969 6.507812 19.15625 C 5.523438 18.679688 5.191406 17.210938 5.878906 16.355469 C 6.65625 15.386719 8.320312 15.296875 8.789062 14.144531 C 9.195312 13.148438 8.425781 12.101562 8.105469 11.074219 C 7.832031 10.183594 7.917969 9.222656 8.253906 8.351562 Z M 8.253906 8.351562 " fill-opacity="1" fill-rule="nonzero"/><g clip-path="url(#id3)"><path fill="#eec191" d="M 21.601562 20.910156 L 18.132812 19.773438 C 17.492188 19.5625 17.058594 18.960938 17.058594 18.285156 L 17.058594 15.605469 L 12.851562 15.605469 L 12.851562 18.316406 C 12.851562 19 12.414062 19.601562 11.765625 19.808594 L 8.289062 20.914062 C 6.488281 21.464844 5.125 22.875 4.582031 24.613281 C 5.125 25.179688 5.714844 25.699219 6.347656 26.171875 C 7.214844 26.824219 8.160156 27.378906 9.164062 27.820312 C 10.9375 28.605469 12.898438 29.039062 14.960938 29.039062 C 18.191406 29.039062 21.171875 27.976562 23.574219 26.171875 C 24.195312 25.710938 24.777344 25.199219 25.3125 24.644531 C 24.78125 22.886719 23.414062 21.464844 21.601562 20.910156 Z M 21.601562 20.910156 " fill-opacity="1" fill-rule="nonzero"/></g><g clip-path="url(#id4)"><path fill="#ed6e4a" d="M 21.601562 20.910156 L 18.878906 20.015625 C 16.742188 21.59375 13.542969 21.480469 11.359375 19.9375 L 8.289062 20.910156 C 6.488281 21.464844 5.125 22.871094 4.582031 24.613281 C 5.128906 25.179688 5.71875 25.699219 6.347656 26.171875 C 7.214844 26.824219 8.160156 27.378906 9.164062 27.820312 C 10.941406 28.605469 12.898438 29.039062 14.964844 29.039062 C 18.191406 29.039062 21.171875 27.972656 23.574219 26.171875 C 24.195312 25.710938 24.777344 25.195312 25.3125 24.640625 C 24.78125 22.886719 23.414062 21.464844 21.601562 20.910156 Z M 21.601562 20.910156 " fill-opacity="1" fill-rule="nonzero"/></g><path fill="#fbcb98" d="M 19.492188 9.609375 C 19.480469 6.371094 17.507812 4.046875 14.960938 4.046875 C 14.960938 4.046875 14.957031 4.046875 14.957031 4.046875 C 14.953125 4.046875 14.953125 4.046875 14.953125 4.046875 C 12.402344 4.046875 10.433594 6.371094 10.421875 9.609375 C 10.414062 11.085938 10.457031 11.453125 10.605469 12.523438 C 11.070312 15.855469 14.128906 17.394531 14.953125 17.394531 C 15.960938 17.394531 18.820312 15.855469 19.28125 12.523438 C 19.433594 11.453125 19.496094 11.085938 19.492188 9.609375 Z M 19.492188 9.609375 " fill-opacity="1" fill-rule="nonzero"/><path fill="#fbcb98" d="M 10.421875 10.101562 C 10.285156 9.957031 10.078125 9.882812 9.964844 10.085938 C 9.796875 10.378906 9.816406 10.769531 9.839844 11.089844 C 9.859375 11.351562 9.890625 11.613281 9.957031 11.867188 C 10.015625 12.085938 10.097656 12.386719 10.292969 12.523438 C 10.335938 12.554688 10.398438 12.585938 10.453125 12.597656 C 10.484375 12.605469 10.667969 12.609375 10.605469 12.527344 " fill-opacity="1" fill-rule="nonzero"/><path fill="#fbcb98" d="M 19.46875 10.101562 C 19.601562 9.957031 19.808594 9.882812 19.921875 10.085938 C 20.089844 10.378906 20.074219 10.769531 20.050781 11.089844 C 20.03125 11.351562 19.996094 11.613281 19.929688 11.867188 C 19.871094 12.085938 19.789062 12.386719 19.597656 12.523438 C 19.550781 12.554688 19.492188 12.585938 19.4375 12.597656 C 19.40625 12.605469 19.21875 12.609375 19.28125 12.527344 " fill-opacity="1" fill-rule="nonzero"/><path fill="#092838" d="M 17.542969 11.695312 C 17.472656 12.324219 16.957031 12.976562 17.308594 13.492188 C 17.519531 13.804688 17.957031 13.882812 18.199219 14.171875 C 18.550781 14.597656 18.308594 15.253906 17.964844 15.683594 C 17.617188 16.117188 17.164062 16.515625 17.078125 17.0625 C 16.933594 18 17.910156 18.683594 18.328125 19.53125 C 18.820312 20.527344 18.421875 21.878906 17.46875 22.445312 C 18.433594 22.53125 19.375 21.855469 19.738281 20.953125 C 20.097656 20.050781 19.929688 18.988281 19.425781 18.15625 C 19.269531 17.902344 19.082031 17.65625 19.003906 17.371094 C 18.839844 16.792969 19.160156 16.050781 19.488281 15.582031 C 19.875 15.03125 20.546875 14.59375 20.25 13.8125 C 20.148438 13.550781 19.980469 13.304688 19.957031 13.023438 C 19.929688 12.664062 20.144531 12.339844 20.335938 12.039062 C 20.703125 11.460938 21.039062 10.835938 21.082031 10.152344 C 21.128906 9.449219 20.867188 8.765625 20.609375 8.109375 C 19.679688 5.746094 18.421875 3.507812 15.660156 3.21875 C 13.144531 2.957031 11.972656 5.425781 12.664062 7.617188 C 12.960938 8.550781 13.65625 9.363281 14.5625 9.71875 C 15.148438 9.953125 15.792969 9.988281 16.386719 10.207031 C 16.976562 10.425781 17.546875 10.917969 17.550781 11.550781 C 17.550781 11.597656 17.550781 11.648438 17.542969 11.695312 Z M 17.542969 11.695312 " fill-opacity="1" fill-rule="nonzero"/><path fill="#092838" d="M 12.453125 8.746094 C 12.933594 8.121094 13.417969 7.488281 13.734375 6.769531 C 13.886719 6.421875 14 6.046875 13.972656 5.667969 C 13.945312 5.289062 13.757812 4.910156 13.429688 4.726562 C 13.125 4.554688 12.742188 4.578125 12.414062 4.699219 C 12.085938 4.824219 11.800781 5.039062 11.523438 5.253906 C 10.921875 5.714844 10.296875 6.203125 9.984375 6.894531 C 9.628906 7.675781 9.695312 9.082031 10.386719 9.699219 C 11.230469 10.453125 11.933594 9.414062 12.453125 8.746094 Z M 12.453125 8.746094 " fill-opacity="1" fill-rule="nonzero"/></svg>