<svg xmlns="http://www.w3.org/2000/svg" xmlns:xlink="http://www.w3.org/1999/xlink" width="40" zoomAndPan="magnify" viewBox="0 0 30 30.000001" height="40" preserveAspectRatio="xMidYMid meet" version="1.0"><defs><clipPath id="id1"><path d="M 0.484375 0 L 29.515625 0 L 29.515625 29.03125 L 0.484375 29.03125 Z M 0.484375 0 " clip-rule="nonzero"/></clipPath><clipPath id="id2"><path d="M 13 4 L 29.515625 4 L 29.515625 29.03125 L 13 29.03125 Z M 13 4 " clip-rule="nonzero"/></clipPath><clipPath id="id3"><path d="M 4 15 L 26 15 L 26 29.03125 L 4 29.03125 Z M 4 15 " clip-rule="nonzero"/></clipPath><clipPath id="id4"><path d="M 4 21 L 26 21 L 26 29.03125 L 4 29.03125 Z M 4 21 " clip-rule="nonzero"/></clipPath></defs><g clip-path="url(#id1)"><path fill="#98c662" d="M 29.402344 14.523438 C 29.402344 18.128906 28.089844 21.433594 25.921875 23.972656 C 25.726562 24.199219 25.523438 24.425781 25.3125 24.640625 C 24.777344 25.195312 24.195312 25.710938 23.574219 26.171875 C 21.171875 27.972656 18.191406 29.039062 14.964844 29.039062 C 14.917969 29.039062 14.875 29.039062 14.832031 29.039062 C 12.816406 29.019531 10.902344 28.585938 9.164062 27.820312 C 8.160156 27.378906 7.214844 26.824219 6.347656 26.171875 C 5.71875 25.699219 5.128906 25.179688 4.582031 24.613281 C 4.382812 24.40625 4.191406 24.191406 4.003906 23.972656 C 1.835938 21.433594 0.523438 18.128906 0.523438 14.523438 C 0.523438 6.503906 6.988281 0.00390625 14.964844 0.00390625 C 20.433594 0.00390625 25.195312 3.066406 27.644531 7.578125 C 28.457031 9.074219 29.015625 10.730469 29.261719 12.488281 C 29.351562 13.152344 29.402344 13.832031 29.402344 14.523438 Z M 29.402344 14.523438 " fill-opacity="1" fill-rule="nonzero"/></g><g clip-path="url(#id2)"><path fill="#58b465" d="M 29.464844 14.523438 C 29.464844 18.128906 28.152344 21.433594 25.988281 23.972656 C 25.792969 24.199219 25.585938 24.425781 25.375 24.640625 C 24.839844 25.195312 24.257812 25.710938 23.640625 26.171875 C 21.234375 27.972656 18.253906 29.039062 15.027344 29.039062 C 14.984375 29.039062 14.941406 29.039062 14.894531 29.039062 L 13.148438 25.917969 L 19.332031 4.847656 L 29.324219 12.488281 C 29.417969 13.152344 29.464844 13.832031 29.464844 14.523438 Z M 29.464844 14.523438 " fill-opacity="1" fill-rule="nonzero"/></g><path fill="#092838" d="M 20.667969 11.769531 C 21.125 9.5625 21.027344 7.175781 19.507812 5.441406 C 19.011719 4.882812 18.402344 4.457031 17.757812 4.132812 C 16.386719 3.445312 14.90625 3.316406 13.441406 3.667969 C 12.027344 4.007812 11.019531 4.859375 10.289062 6.246094 C 8.804688 9.066406 9.25 13.246094 11.164062 15.6875 C 11.878906 16.601562 12.886719 17.203125 13.945312 17.53125 C 14.554688 17.722656 15.195312 17.824219 15.816406 17.699219 C 16.234375 17.617188 16.625 17.429688 17 17.207031 C 18.8125 16.136719 20.136719 14.167969 20.625 11.984375 C 20.636719 11.914062 20.652344 11.839844 20.667969 11.769531 Z M 20.667969 11.769531 " fill-opacity="1" fill-rule="nonzero"/><g clip-path="url(#id3)"><path fill="#ecc090" d="M 21.601562 20.910156 L 18.132812 19.773438 C 17.492188 19.5625 17.058594 18.960938 17.058594 18.285156 L 17.058594 15.605469 L 12.851562 15.605469 L 12.851562 18.316406 C 12.851562 19 12.414062 19.601562 11.765625 19.808594 L 8.289062 20.914062 C 6.488281 21.464844 5.125 22.875 4.582031 24.613281 C 5.125 25.179688 5.714844 25.699219 6.347656 26.171875 C 7.214844 26.824219 8.160156 27.378906 9.164062 27.820312 C 10.9375 28.605469 12.898438 29.039062 14.960938 29.039062 C 18.191406 29.039062 21.171875 27.976562 23.574219 26.171875 C 24.195312 25.710938 24.777344 25.199219 25.3125 24.644531 C 24.78125 22.886719 23.414062 21.464844 21.601562 20.910156 Z M 21.601562 20.910156 " fill-opacity="1" fill-rule="nonzero"/></g><g clip-path="url(#id4)"><path fill="#fff599" d="M 23.558594 21.980469 L 15.171875 25.007812 L 6.332031 21.980469 C 5.515625 22.667969 4.902344 23.582031 4.582031 24.613281 C 5.128906 25.179688 5.71875 25.699219 6.347656 26.171875 C 7.214844 26.824219 8.160156 27.378906 9.164062 27.820312 C 10.941406 28.605469 12.898438 29.039062 14.964844 29.039062 C 18.191406 29.039062 21.171875 27.972656 23.574219 26.171875 C 24.195312 25.710938 24.777344 25.195312 25.3125 24.640625 C 24.996094 23.597656 24.382812 22.675781 23.558594 21.980469 Z M 23.558594 21.980469 " fill-opacity="1" fill-rule="nonzero"/></g><path fill="#fbcb98" d="M 19.492188 9.609375 C 19.480469 6.371094 17.507812 4.046875 14.960938 4.046875 C 14.960938 4.046875 14.957031 4.046875 14.957031 4.046875 C 14.953125 4.046875 14.953125 4.046875 14.953125 4.046875 C 12.402344 4.046875 10.433594 6.371094 10.421875 9.609375 C 10.414062 11.085938 10.457031 11.453125 10.605469 12.523438 C 11.070312 15.855469 14.128906 17.394531 14.953125 17.394531 C 15.960938 17.394531 18.820312 15.855469 19.28125 12.523438 C 19.433594 11.453125 19.496094 11.085938 19.492188 9.609375 Z M 19.492188 9.609375 " fill-opacity="1" fill-rule="nonzero"/><path fill="#fbcb98" d="M 10.421875 10.101562 C 10.285156 9.957031 10.078125 9.882812 9.964844 10.089844 C 9.796875 10.378906 9.816406 10.769531 9.839844 11.089844 C 9.859375 11.351562 9.890625 11.613281 9.957031 11.867188 C 10.015625 12.085938 10.097656 12.386719 10.292969 12.523438 C 10.335938 12.554688 10.398438 12.585938 10.453125 12.597656 C 10.484375 12.605469 10.667969 12.609375 10.605469 12.527344 " fill-opacity="1" fill-rule="nonzero"/><path fill="#fbcb98" d="M 19.46875 10.101562 C 19.601562 9.957031 19.808594 9.882812 19.921875 10.089844 C 20.089844 10.378906 20.074219 10.769531 20.050781 11.089844 C 20.03125 11.351562 19.996094 11.613281 19.929688 11.867188 C 19.871094 12.085938 19.789062 12.386719 19.597656 12.523438 C 19.550781 12.554688 19.492188 12.585938 19.4375 12.597656 C 19.40625 12.605469 19.21875 12.609375 19.28125 12.527344 " fill-opacity="1" fill-rule="nonzero"/><path fill="#092838" d="M 17.09375 11.902344 C 17.324219 11.96875 17.566406 12.007812 17.816406 12.011719 C 17.820312 11.808594 17.828125 11.601562 17.832031 11.398438 C 18.65625 11.746094 19.082031 12.882812 19.242188 13.695312 C 19.226562 13.621094 19.53125 13.226562 19.574219 13.132812 C 19.671875 12.910156 19.71875 12.679688 19.796875 12.453125 C 19.957031 11.96875 20.082031 11.5 20.15625 10.992188 C 20.316406 9.886719 20.316406 8.75 20.066406 7.660156 C 19.714844 6.140625 18.222656 4.5625 16.742188 3.964844 C 16.144531 3.726562 15.535156 3.648438 14.902344 3.648438 C 14.667969 3.648438 14.433594 3.664062 14.199219 3.699219 C 12.371094 3.980469 11.085938 5.425781 10.496094 7.121094 C 10.195312 7.992188 10.058594 8.921875 10.078125 9.84375 C 10.09375 10.503906 10.128906 11.847656 10.628906 12.328125 C 11.003906 11.644531 10.453125 10.910156 11.042969 10.324219 C 11.402344 9.96875 11.835938 9.707031 12.21875 9.386719 C 12.550781 9.109375 12.707031 8.667969 13.015625 8.40625 C 13.566406 8.863281 14.015625 9.539062 14.515625 10.066406 C 15.246094 10.839844 16.097656 11.617188 17.09375 11.902344 Z M 17.09375 11.902344 " fill-opacity="1" fill-rule="nonzero"/><path fill="#092838" d="M 19.472656 15.25 C 19.355469 15.683594 19.25 16.132812 19.273438 16.582031 C 19.304688 17.164062 19.546875 17.71875 19.808594 18.242188 C 20.289062 19.214844 20.851562 20.15625 21.207031 21.183594 C 21.371094 21.660156 21.492188 22.160156 21.480469 22.664062 C 21.460938 23.730469 20.867188 24.707031 20.140625 25.476562 C 19.410156 26.25 18.539062 26.867188 17.773438 27.605469 C 18.277344 26.40625 18.636719 25.148438 18.855469 23.867188 C 18.914062 23.515625 18.960938 23.152344 18.867188 22.808594 C 18.722656 22.273438 18.269531 21.890625 17.910156 21.46875 C 16.78125 20.136719 16.550781 18.105469 17.355469 16.554688 C 17.652344 15.980469 18.070312 15.480469 18.457031 14.96875 C 19.035156 14.207031 19.5625 13.398438 20.03125 12.5625 C 19.984375 12.648438 20.136719 13.097656 20.125 13.226562 C 20.105469 13.414062 20.039062 13.558594 19.976562 13.730469 C 19.789062 14.230469 19.617188 14.734375 19.472656 15.25 Z M 19.472656 15.25 " fill-opacity="1" fill-rule="nonzero"/><path fill="#092838" d="M 10.550781 15.289062 C 10.671875 15.722656 10.773438 16.167969 10.75 16.621094 C 10.71875 17.203125 10.476562 17.757812 10.21875 18.28125 C 9.734375 19.253906 9.171875 20.195312 8.816406 21.222656 C 8.652344 21.699219 8.535156 22.199219 8.542969 22.703125 C 8.566406 23.765625 9.15625 24.742188 9.886719 25.515625 C 10.613281 26.289062 11.484375 26.90625 12.25 27.644531 C 11.75 26.445312 11.386719 25.1875 11.171875 23.90625 C 11.113281 23.554688 11.066406 23.191406 11.15625 22.847656 C 11.300781 22.3125 11.757812 21.929688 12.117188 21.507812 C 13.246094 20.175781 13.472656 18.144531 12.667969 16.59375 C 12.371094 16.019531 11.957031 15.519531 11.566406 15.007812 C 10.988281 14.242188 10.460938 13.4375 9.996094 12.601562 C 10.042969 12.6875 9.890625 13.136719 9.902344 13.265625 C 9.917969 13.449219 9.984375 13.597656 10.050781 13.769531 C 10.238281 14.269531 10.40625 14.773438 10.550781 15.289062 Z M 10.550781 15.289062 " fill-opacity="1" fill-rule="nonzero"/></svg>