<svg xmlns="http://www.w3.org/2000/svg" xmlns:xlink="http://www.w3.org/1999/xlink" width="40" zoomAndPan="magnify" viewBox="0 0 30 30.000001" height="40" preserveAspectRatio="xMidYMid meet" version="1.0"><defs><clipPath id="id1"><path d="M 0.484375 0 L 29.515625 0 L 29.515625 29.03125 L 0.484375 29.03125 Z M 0.484375 0 " clip-rule="nonzero"/></clipPath><clipPath id="id2"><path d="M 9 3 L 29.515625 3 L 29.515625 29.03125 L 9 29.03125 Z M 9 3 " clip-rule="nonzero"/></clipPath><clipPath id="id3"><path d="M 3 18 L 27 18 L 27 29.03125 L 3 29.03125 Z M 3 18 " clip-rule="nonzero"/></clipPath></defs><g clip-path="url(#id1)"><path fill="#aad8f4" d="M 29.523438 14.523438 C 29.523438 18.128906 28.203125 21.433594 26.027344 23.972656 C 25.324219 24.789062 24.53125 25.527344 23.667969 26.171875 C 21.25 27.972656 18.253906 29.039062 15.007812 29.039062 C 12.933594 29.039062 10.960938 28.605469 9.175781 27.820312 C 8.164062 27.378906 7.214844 26.824219 6.34375 26.171875 C 5.480469 25.527344 4.6875 24.789062 3.984375 23.972656 C 1.808594 21.433594 0.488281 18.128906 0.488281 14.523438 C 0.488281 6.503906 6.988281 0.00390625 15.007812 0.00390625 C 20.507812 0.00390625 25.296875 3.066406 27.757812 7.578125 C 28.882812 9.640625 29.523438 12.007812 29.523438 14.523438 Z M 29.523438 14.523438 " fill-opacity="1" fill-rule="nonzero"/></g><g clip-path="url(#id2)"><path fill="#5ec1ed" d="M 29.523438 14.523438 C 29.523438 18.128906 28.203125 21.433594 26.027344 23.972656 C 25.324219 24.789062 24.53125 25.527344 23.667969 26.171875 C 21.25 27.972656 18.253906 29.039062 15.007812 29.039062 C 12.933594 29.039062 10.960938 28.605469 9.175781 27.820312 L 15.6875 5.746094 L 19.058594 5.796875 L 18.609375 3.554688 L 27.757812 7.578125 C 28.882812 9.640625 29.523438 12.007812 29.523438 14.523438 Z M 29.523438 14.523438 " fill-opacity="1" fill-rule="nonzero"/></g><path fill="#472312" d="M 12.492188 3.058594 C 11.773438 3.3125 11.144531 3.769531 10.570312 4.269531 C 8.859375 5.769531 7.789062 7.902344 7.847656 10.214844 C 7.851562 10.328125 7.863281 10.457031 7.945312 10.535156 C 8.035156 10.621094 8.164062 10.582031 8.21875 10.484375 C 8.253906 10.757812 8.167969 10.890625 8.066406 11.121094 C 7.9375 11.40625 7.894531 11.726562 7.859375 12.039062 C 7.769531 12.761719 7.789062 13.496094 7.917969 14.210938 C 7.941406 14.332031 7.976562 14.46875 8.089844 14.519531 C 8.242188 14.589844 8.453125 14.453125 8.585938 14.558594 C 8.632812 14.597656 8.652344 14.65625 8.671875 14.714844 C 8.757812 15.023438 8.726562 15.351562 8.703125 15.671875 C 8.679688 15.988281 8.664062 16.320312 8.777344 16.621094 C 8.894531 16.917969 9.175781 17.175781 9.496094 17.164062 C 9.679688 17.160156 9.851562 17.066406 10.035156 17.039062 C 10 17.046875 10.152344 17.679688 10.167969 17.734375 C 10.234375 17.957031 10.292969 18.066406 10.453125 18.21875 C 10.777344 18.523438 11.195312 18.703125 11.609375 18.847656 C 12.289062 19.085938 13.058594 19.300781 13.710938 18.988281 C 14.351562 18.683594 14.671875 17.972656 14.9375 17.316406 C 15.441406 16.09375 15.945312 14.859375 16.1875 13.554688 C 16.394531 12.445312 16.40625 11.308594 16.40625 10.179688 C 16.410156 8.949219 16.402344 7.710938 16.171875 6.5 C 15.972656 5.449219 15.835938 4.332031 15.242188 3.445312 C 14.660156 2.574219 13.460938 2.714844 12.492188 3.058594 Z M 12.492188 3.058594 " fill-opacity="1" fill-rule="nonzero"/><path fill="#472312" d="M 17.617188 3.058594 C 18.335938 3.3125 18.964844 3.769531 19.539062 4.269531 C 21.25 5.769531 22.324219 7.902344 22.261719 10.214844 C 22.257812 10.328125 22.246094 10.457031 22.164062 10.535156 C 22.078125 10.621094 21.945312 10.582031 21.894531 10.484375 C 21.855469 10.757812 21.945312 10.890625 22.042969 11.121094 C 22.171875 11.40625 22.214844 11.726562 22.253906 12.039062 C 22.339844 12.761719 22.324219 13.496094 22.191406 14.210938 C 22.167969 14.332031 22.132812 14.46875 22.023438 14.519531 C 21.867188 14.589844 21.65625 14.453125 21.523438 14.558594 C 21.480469 14.597656 21.457031 14.65625 21.441406 14.714844 C 21.355469 15.023438 21.382812 15.351562 21.410156 15.671875 C 21.433594 15.988281 21.445312 16.320312 21.332031 16.621094 C 21.214844 16.917969 20.933594 17.175781 20.613281 17.164062 C 20.429688 17.160156 20.257812 17.066406 20.078125 17.039062 C 20.109375 17.046875 19.960938 17.679688 19.941406 17.734375 C 19.875 17.957031 19.820312 18.066406 19.65625 18.21875 C 19.332031 18.523438 18.914062 18.703125 18.5 18.847656 C 17.820312 19.085938 17.050781 19.300781 16.398438 18.988281 C 15.761719 18.683594 15.441406 17.972656 15.171875 17.316406 C 14.671875 16.09375 14.164062 14.859375 13.921875 13.554688 C 13.714844 12.445312 13.703125 11.308594 13.703125 10.179688 C 13.703125 8.949219 13.710938 7.710938 13.9375 6.5 C 14.140625 5.449219 14.273438 4.332031 14.867188 3.445312 C 15.453125 2.574219 16.648438 2.714844 17.617188 3.058594 Z M 17.617188 3.058594 " fill-opacity="1" fill-rule="nonzero"/><path fill="#f8b994" d="M 10.125 9.832031 C 9.980469 9.671875 9.757812 9.597656 9.632812 9.816406 C 9.453125 10.125 9.46875 10.546875 9.496094 10.890625 C 9.519531 11.167969 9.550781 11.449219 9.625 11.722656 C 9.6875 11.957031 9.773438 12.277344 9.984375 12.425781 C 10.03125 12.457031 10.097656 12.492188 10.15625 12.503906 C 10.1875 12.507812 10.390625 12.511719 10.320312 12.425781 " fill-opacity="1" fill-rule="nonzero"/><path fill="#f8b994" d="M 19.871094 9.832031 C 20.015625 9.671875 20.238281 9.597656 20.363281 9.816406 C 20.542969 10.125 20.523438 10.546875 20.5 10.890625 C 20.476562 11.167969 20.445312 11.449219 20.371094 11.722656 C 20.308594 11.957031 20.222656 12.277344 20.011719 12.425781 C 19.964844 12.457031 19.898438 12.492188 19.839844 12.503906 C 19.804688 12.507812 19.605469 12.511719 19.675781 12.425781 " fill-opacity="1" fill-rule="nonzero"/><path fill="#f8b994" d="M 26.027344 23.972656 C 25.324219 24.789062 24.53125 25.527344 23.667969 26.171875 L 6.34375 26.171875 C 5.476562 25.527344 4.6875 24.789062 3.984375 23.972656 C 4.644531 22.296875 6.039062 20.957031 7.835938 20.410156 L 10.828125 19.261719 C 11.984375 18.878906 11.933594 18.242188 11.933594 17.023438 L 11.933594 14.433594 L 18.078125 14.433594 L 18.078125 17.019531 C 18.078125 18.238281 18.140625 18.964844 19.296875 19.34375 L 22.179688 20.40625 C 23.976562 20.957031 25.371094 22.292969 26.027344 23.972656 Z M 26.027344 23.972656 " fill-opacity="1" fill-rule="nonzero"/><g clip-path="url(#id3)"><path fill="#ed6e4a" d="M 26.027344 23.972656 C 23.363281 27.074219 19.414062 29.039062 15.007812 29.039062 C 10.597656 29.039062 6.648438 27.074219 3.988281 23.972656 C 4.644531 22.296875 6.039062 20.957031 7.835938 20.410156 L 10.832031 19.261719 C 11.167969 19.148438 11.402344 19.015625 11.5625 18.851562 C 11.574219 18.863281 11.589844 18.875 11.597656 18.886719 C 13.515625 20.679688 16.460938 20.808594 18.511719 19.167969 C 18.578125 19.113281 18.636719 19.074219 18.6875 19.042969 C 18.84375 19.160156 19.042969 19.257812 19.296875 19.34375 L 22.179688 20.40625 C 23.976562 20.957031 25.371094 22.292969 26.027344 23.972656 Z M 26.027344 23.972656 " fill-opacity="1" fill-rule="nonzero"/></g><path fill="#f8b994" d="M 19.898438 9.300781 C 19.882812 5.832031 17.761719 3.339844 15.015625 3.339844 C 15.015625 3.339844 15.011719 3.339844 15.011719 3.339844 C 15.011719 3.339844 15.007812 3.339844 15.007812 3.339844 C 12.261719 3.339844 10.136719 5.832031 10.125 9.300781 C 10.121094 10.882812 10.175781 11.925781 10.335938 13.074219 C 10.835938 16.644531 14.121094 17.644531 15.007812 17.644531 C 16.09375 17.644531 19.1875 16.644531 19.6875 13.074219 C 19.847656 11.925781 19.902344 10.882812 19.898438 9.300781 Z M 19.898438 9.300781 " fill-opacity="1" fill-rule="nonzero"/><path fill="#472312" d="M 18.867188 13.265625 C 18.34375 13.820312 17.65625 14.109375 16.820312 13.648438 C 16.574219 13.511719 16.367188 13.320312 16.121094 13.183594 C 15.445312 12.808594 14.585938 12.925781 13.90625 13.285156 C 13.382812 13.566406 12.832031 14.019531 12.199219 13.875 C 11.644531 13.746094 11.246094 13.242188 11.003906 12.761719 C 10.546875 11.851562 10.261719 10.90625 10.125 9.933594 C 10.136719 11.175781 10.195312 12.085938 10.332031 13.074219 C 10.832031 16.640625 14.117188 17.640625 15.003906 17.640625 C 16.09375 17.640625 19.1875 16.640625 19.6875 13.074219 C 19.761719 12.542969 19.8125 12.035156 19.847656 11.484375 C 19.660156 12.066406 19.328125 12.769531 18.867188 13.265625 Z M 18.867188 13.265625 " fill-opacity="1" fill-rule="nonzero"/><path fill="#472312" d="M 19.898438 9.300781 C 19.890625 7.75 19.460938 6.394531 18.746094 5.371094 C 18.574219 5.757812 18.402344 6.144531 18.21875 6.527344 C 18.234375 7.597656 18.234375 8.785156 18.929688 9.652344 C 19.277344 10.085938 19.6875 10.394531 19.816406 10.964844 C 19.839844 11.070312 19.839844 11.191406 19.835938 11.320312 C 19.84375 11.308594 19.851562 11.296875 19.859375 11.285156 C 19.890625 10.703125 19.902344 10.066406 19.898438 9.300781 Z M 19.898438 9.300781 " fill-opacity="1" fill-rule="nonzero"/><path fill="#472312" d="M 10.136719 10.472656 C 10.148438 10.917969 10.222656 11.351562 10.285156 11.789062 C 10.285156 11.789062 10.519531 11.375 10.792969 11.183594 C 12.453125 10.03125 15.386719 7.117188 15.386719 7.117188 C 15.386719 7.117188 16.46875 8.683594 17.210938 9.679688 C 17.777344 10.441406 18.960938 11.425781 19.847656 11.789062 C 19.949219 11.21875 20.179688 9.738281 20.179688 9.140625 C 20.183594 8.023438 19.640625 6.277344 19.285156 5.609375 C 18.660156 4.4375 17.167969 3.289062 15.789062 3.214844 C 14.445312 3.144531 12.976562 3.351562 11.917969 4.207031 C 10.179688 5.609375 10.132812 7.171875 10.125 9.300781 C 10.125 9.691406 10.125 10.082031 10.136719 10.472656 Z M 10.136719 10.472656 " fill-opacity="1" fill-rule="nonzero"/><path fill="#f8b994" d="M 16.722656 14.902344 C 16.722656 15.597656 15.945312 16.515625 14.988281 16.515625 C 14.027344 16.515625 13.25 15.597656 13.25 14.902344 C 13.25 14.207031 14.027344 13.992188 14.988281 13.992188 C 15.945312 13.992188 16.722656 14.207031 16.722656 14.902344 Z M 16.722656 14.902344 " fill-opacity="1" fill-rule="nonzero"/></svg>